999
"DXF R12 Output" (www.mydxf.blogspot.com)
 0 
SECTION
 2 
HEADER
 9 
$ACADVER
 1 
AC1009
 9 
$EXTMIN
 10 
 0 
 20 
 0 
 9 
$EXTMAX
 10 
 8.5 
 20 
 11 
 0 
ENDSEC
 0 
SECTION
 2 
ENTITIES
0
LINE
8
Layer 1
10
16.051399
20
20.542265
11
13.866954
21
19.506376
0
LINE
8
Layer 1
10
13.866954
20
19.506376
11
12.259035
21
18.246386
0
LINE
8
Layer 1
10
12.259035
20
18.246386
11
11.422974
21
17.285964
0
LINE
8
Layer 1
10
11.422974
20
17.285964
11
11.016728
21
16.561121
0
LINE
8
Layer 1
10
11.016728
20
16.561121
11
11.025349
21
16.024331
0
LINE
8
Layer 1
10
11.025349
20
16.024331
11
11.433888
21
15.628067
0
LINE
8
Layer 1
10
11.433888
20
15.628067
11
11.889015
21
15.066048
0
LINE
8
Layer 1
10
11.889015
20
15.066048
11
12.284083
21
14.111122
0
LINE
8
Layer 1
10
12.284083
20
14.111122
11
12.569039
21
13.309963
0
LINE
8
Layer 1
10
12.569039
20
13.309963
11
12.668258
21
13.705780
0
LINE
8
Layer 1
10
12.668258
20
13.705780
11
12.725199
21
14.160307
0
LINE
8
Layer 1
10
12.725199
20
14.160307
11
12.939897
21
14.381041
0
LINE
8
Layer 1
10
12.939897
20
14.381041
11
14.375703
21
14.309383
0
LINE
8
Layer 1
10
14.375703
20
14.309383
11
18.046359
21
13.891341
0
LINE
8
Layer 1
10
18.046359
20
13.891341
11
19.659001
21
13.562492
0
LINE
8
Layer 1
10
19.659001
20
13.562492
11
20.787488
21
12.934563
0
LINE
8
Layer 1
10
20.787488
20
12.934563
11
21.429472
21
12.009706
0
LINE
8
Layer 1
10
21.429472
20
12.009706
11
21.582605
21
10.790070
0
LINE
8
Layer 1
10
21.582605
20
10.790070
11
21.674267
21
9.886870
0
LINE
8
Layer 1
10
21.674267
20
9.886870
11
21.994429
21
9.397479
0
LINE
8
Layer 1
10
21.994429
20
9.397479
11
22.393372
21
9.419263
0
LINE
8
Layer 1
10
22.393372
20
9.419263
11
22.721373
21
10.049589
0
LINE
8
Layer 1
10
22.721373
20
10.049589
11
22.807362
21
10.753954
0
LINE
8
Layer 1
10
22.807362
20
10.753954
11
22.706291
21
11.442709
0
LINE
8
Layer 1
10
22.706291
20
11.442709
11
22.416969
21
12.120087
0
LINE
8
Layer 1
10
22.416969
20
12.120087
11
21.938205
21
12.790321
0
LINE
8
Layer 1
10
21.938205
20
12.790321
11
21.605095
21
13.269041
0
LINE
8
Layer 1
10
21.605095
20
13.269041
11
21.550855
21
13.549852
0
LINE
8
Layer 1
10
21.550855
20
13.549852
11
24.098971
21
13.810908
0
LINE
8
Layer 1
10
24.098971
20
13.810908
11
26.502094
21
13.932264
0
LINE
8
Layer 1
10
26.502094
20
13.932264
11
25.421888
21
12.897213
0
LINE
8
Layer 1
10
25.421888
20
12.897213
11
24.589553
21
11.831735
0
LINE
8
Layer 1
10
24.589553
20
11.831735
11
24.341682
21
10.693762
0
LINE
8
Layer 1
10
24.341682
20
10.693762
11
24.445311
21
9.868349
0
LINE
8
Layer 1
10
24.445311
20
9.868349
11
24.694460
21
9.525008
0
LINE
8
Layer 1
10
24.694460
20
9.525008
11
24.943609
21
9.875758
0
LINE
8
Layer 1
10
24.943609
20
9.875758
11
25.047238
21
10.719162
0
LINE
8
Layer 1
10
25.047238
20
10.719162
11
25.233372
21
11.758137
0
LINE
8
Layer 1
10
25.233372
20
11.758137
11
25.840988
21
12.446010
0
LINE
8
Layer 1
10
25.840988
20
12.446010
11
27.357228
21
13.668738
0
LINE
8
Layer 1
10
27.357228
20
13.668738
11
28.277185
21
14.232786
0
LINE
8
Layer 1
10
28.277185
20
14.232786
11
29.473896
21
14.619828
0
LINE
8
Layer 1
10
29.473896
20
14.619828
11
32.014603
21
15.360309
0
LINE
8
Layer 1
10
32.014603
20
15.360309
11
32.874530
21
15.903779
0
LINE
8
Layer 1
10
32.874530
20
15.903779
11
33.163067
21
16.542396
0
LINE
8
Layer 1
10
33.163067
20
16.542396
11
32.924347
21
17.242223
0
LINE
8
Layer 1
10
32.924347
20
17.242223
11
32.202502
21
17.969323
0
LINE
8
Layer 1
10
32.202502
20
17.969323
11
31.041663
21
18.689758
0
LINE
8
Layer 1
10
31.041663
20
18.689758
11
29.485962
21
19.369592
0
LINE
8
Layer 1
10
29.485962
20
19.369592
11
27.579532
21
19.974888
0
LINE
8
Layer 1
10
27.579532
20
19.974888
11
25.366502
21
20.471709
0
LINE
8
Layer 1
10
25.366502
20
20.471709
11
22.225014
21
21.048149
0
LINE
8
Layer 1
10
22.225014
20
21.048149
11
20.495658
21
21.294939
0
LINE
8
Layer 1
10
20.495658
20
21.294939
11
19.048116
21
21.305853
0
LINE
8
Layer 1
10
19.048116
20
21.305853
11
17.645619
21
21.061444
0
LINE
8
Layer 1
10
17.645619
20
21.061444
11
16.051399
21
20.542265
0
LINE
8
Layer 1
10
25.579933
20
19.244395
11
29.506043
21
17.956138
0
LINE
8
Layer 1
10
29.506043
20
17.956138
11
30.869833
21
17.332647
0
LINE
8
Layer 1
10
30.869833
20
17.332647
11
31.397242
21
16.899127
0
LINE
8
Layer 1
10
31.397242
20
16.899127
11
31.112330
21
16.620211
0
LINE
8
Layer 1
10
31.112330
20
16.620211
11
30.427102
21
16.378073
0
LINE
8
Layer 1
10
30.427102
20
16.378073
11
28.927796
21
16.028118
0
LINE
8
Layer 1
10
28.927796
20
16.028118
11
26.486864
21
15.660914
0
LINE
8
Layer 1
10
26.486864
20
15.660914
11
23.143075
21
15.467245
0
LINE
8
Layer 1
10
23.143075
20
15.467245
11
19.565062
21
15.465993
0
LINE
8
Layer 1
10
19.565062
20
15.465993
11
16.421463
21
15.676045
0
LINE
8
Layer 1
10
16.421463
20
15.676045
11
14.933956
21
15.912650
0
LINE
8
Layer 1
10
14.933956
20
15.912650
11
13.873706
21
16.216793
0
LINE
8
Layer 1
10
13.873706
20
16.216793
11
13.240700
21
16.587587
0
LINE
8
Layer 1
10
13.240700
20
16.587587
11
13.034927
21
17.024142
0
LINE
8
Layer 1
10
13.034927
20
17.024142
11
13.256373
21
17.525570
0
LINE
8
Layer 1
10
13.256373
20
17.525570
11
13.905026
21
18.090981
0
LINE
8
Layer 1
10
13.905026
20
18.090981
11
16.483905
21
19.410200
0
LINE
8
Layer 1
10
16.483905
20
19.410200
11
18.228513
21
19.861436
0
LINE
8
Layer 1
10
18.228513
20
19.861436
11
20.425758
21
19.982406
0
LINE
8
Layer 1
10
20.425758
20
19.982406
11
22.926083
21
19.775822
0
LINE
8
Layer 1
10
22.926083
20
19.775822
11
25.579933
21
19.244395
0
LINE
8
Layer 1
10
56.444480
20
21.227713
11
55.108554
21
20.435522
0
LINE
8
Layer 1
10
55.108554
20
20.435522
11
54.225859
21
19.550033
0
LINE
8
Layer 1
10
54.225859
20
19.550033
11
53.932657
21
18.764754
0
LINE
8
Layer 1
10
53.932657
20
18.764754
11
54.049696
21
18.470166
0
LINE
8
Layer 1
10
54.049696
20
18.470166
11
54.365206
21
18.273197
0
LINE
8
Layer 1
10
54.365206
20
18.273197
11
54.678341
21
17.822258
0
LINE
8
Layer 1
10
54.678341
20
17.822258
11
54.882732
21
16.920999
0
LINE
8
Layer 1
10
54.882732
20
16.920999
11
55.326482
21
13.692771
0
LINE
8
Layer 1
10
55.326482
20
13.692771
11
55.539908
21
13.012224
0
LINE
8
Layer 1
10
55.539908
20
13.012224
11
55.761502
21
12.890510
0
LINE
8
Layer 1
10
55.761502
20
12.890510
11
55.994732
21
13.210700
0
LINE
8
Layer 1
10
55.994732
20
13.210700
11
56.091702
21
13.694138
0
LINE
8
Layer 1
10
56.091702
20
13.694138
11
56.294423
21
14.323902
0
LINE
8
Layer 1
10
56.294423
20
14.323902
11
56.842193
21
14.748415
0
LINE
8
Layer 1
10
56.842193
20
14.748415
11
57.644427
21
14.927131
0
LINE
8
Layer 1
10
57.644427
20
14.927131
11
58.610537
21
14.819500
0
LINE
8
Layer 1
10
58.610537
20
14.819500
11
62.289703
21
14.115355
0
LINE
8
Layer 1
10
62.289703
20
14.115355
11
65.569083
21
13.758344
0
LINE
8
Layer 1
10
65.569083
20
13.758344
11
66.391938
21
13.630197
0
LINE
8
Layer 1
10
66.391938
20
13.630197
11
66.675042
21
13.258105
0
LINE
8
Layer 1
10
66.675042
20
13.258105
11
66.897292
21
12.178604
0
LINE
8
Layer 1
10
66.897292
20
12.178604
11
66.885518
21
11.691550
0
LINE
8
Layer 1
10
66.885518
20
11.691550
11
66.368125
21
11.403198
0
LINE
8
Layer 1
10
66.368125
20
11.403198
11
65.863592
21
11.222091
0
LINE
8
Layer 1
10
65.863592
20
11.222091
11
65.658468
21
10.980923
0
LINE
8
Layer 1
10
65.658468
20
10.980923
11
65.739822
21
10.616194
0
LINE
8
Layer 1
10
65.739822
20
10.616194
11
66.094722
21
10.064406
0
LINE
8
Layer 1
10
66.094722
20
10.064406
11
66.601686
21
9.660436
0
LINE
8
Layer 1
10
66.601686
20
9.660436
11
67.137093
21
9.639352
0
LINE
8
Layer 1
10
67.137093
20
9.639352
11
67.560978
21
9.957795
0
LINE
8
Layer 1
10
67.560978
20
9.957795
11
67.733376
21
10.572406
0
LINE
8
Layer 1
10
67.733376
20
10.572406
11
67.831536
21
11.127491
0
LINE
8
Layer 1
10
67.831536
20
11.127491
11
68.078128
21
11.258118
0
LINE
8
Layer 1
10
68.078128
20
11.258118
11
68.401317
21
10.982477
0
LINE
8
Layer 1
10
68.401317
20
10.982477
11
68.729268
21
10.318759
0
LINE
8
Layer 1
10
68.729268
20
10.318759
11
69.078519
21
9.348619
0
LINE
8
Layer 1
10
69.078519
20
9.348619
11
69.327227
21
10.471864
0
LINE
8
Layer 1
10
69.327227
20
10.471864
11
69.741118
21
11.447235
0
LINE
8
Layer 1
10
69.741118
20
11.447235
11
70.545502
21
12.418537
0
LINE
8
Layer 1
10
70.545502
20
12.418537
11
71.732936
21
13.378529
0
LINE
8
Layer 1
10
71.732936
20
13.378529
11
73.295980
21
14.319967
0
LINE
8
Layer 1
10
73.295980
20
14.319967
11
74.535862
21
15.062564
0
LINE
8
Layer 1
10
74.535862
20
15.062564
11
75.210858
21
15.622070
0
LINE
8
Layer 1
10
75.210858
20
15.622070
11
75.440644
21
16.082906
0
LINE
8
Layer 1
10
75.440644
20
16.082906
11
75.494117
21
16.496568
0
LINE
8
Layer 1
10
75.494117
20
16.496568
11
75.350906
21
16.878621
0
LINE
8
Layer 1
10
75.350906
20
16.878621
11
74.990637
21
17.244628
0
LINE
8
Layer 1
10
74.990637
20
17.244628
11
73.537434
21
17.990770
0
LINE
8
Layer 1
10
73.537434
20
17.990770
11
70.971525
21
18.859514
0
LINE
8
Layer 1
10
70.971525
20
18.859514
11
68.491805
21
19.531071
0
LINE
8
Layer 1
10
68.491805
20
19.531071
11
63.852818
21
20.498168
0
LINE
8
Layer 1
10
63.852818
20
20.498168
11
58.904445
21
21.300694
0
LINE
8
Layer 1
10
58.904445
20
21.300694
11
57.351356
21
21.374816
0
LINE
8
Layer 1
10
57.351356
20
21.374816
11
56.444480
21
21.227713
0
LINE
8
Layer 1
10
61.736150
20
19.759451
11
66.868717
21
18.720652
0
LINE
8
Layer 1
10
66.868717
20
18.720652
11
70.821242
21
17.541888
0
LINE
8
Layer 1
10
70.821242
20
17.541888
11
73.103914
21
16.639206
0
LINE
8
Layer 1
10
73.103914
20
16.639206
11
73.512031
21
16.318408
0
LINE
8
Layer 1
10
73.512031
20
16.318408
11
73.409221
21
16.071686
0
LINE
8
Layer 1
10
73.409221
20
16.071686
11
71.604475
21
15.761605
0
LINE
8
Layer 1
10
71.604475
20
15.761605
11
67.556987
21
15.631242
0
LINE
8
Layer 1
10
67.556987
20
15.631242
11
63.173153
21
15.711775
0
LINE
8
Layer 1
10
63.173153
20
15.711775
11
59.925737
21
16.111197
0
LINE
8
Layer 1
10
59.925737
20
16.111197
11
58.661307
21
16.444444
0
LINE
8
Layer 1
10
58.661307
20
16.444444
11
57.600726
21
16.874156
0
LINE
8
Layer 1
10
57.600726
20
16.874156
11
56.717243
21
17.405916
0
LINE
8
Layer 1
10
56.717243
20
17.405916
11
55.984105
21
18.045302
0
LINE
8
Layer 1
10
55.984105
20
18.045302
11
55.557905
21
18.669719
0
LINE
8
Layer 1
10
55.557905
20
18.669719
11
55.807716
21
19.167136
0
LINE
8
Layer 1
10
55.807716
20
19.167136
11
56.701986
21
19.895728
0
LINE
8
Layer 1
10
56.701986
20
19.895728
11
57.733972
21
20.211932
0
LINE
8
Layer 1
10
57.733972
20
20.211932
11
59.284938
21
20.153818
0
LINE
8
Layer 1
10
59.284938
20
20.153818
11
61.736150
21
19.759451
0
LINE
8
Layer 1
10
68.879904
20
12.026910
11
68.250196
21
11.835087
0
LINE
8
Layer 1
10
68.250196
20
11.835087
11
68.086154
21
12.149676
0
LINE
8
Layer 1
10
68.086154
20
12.149676
11
67.879779
21
13.179788
0
LINE
8
Layer 1
10
67.879779
20
13.179788
11
67.853943
21
13.449095
0
LINE
8
Layer 1
10
67.853943
20
13.449095
11
68.058858
21
13.630859
0
LINE
8
Layer 1
10
68.058858
20
13.630859
11
69.379085
21
13.826077
0
LINE
8
Layer 1
10
69.379085
20
13.826077
11
71.084767
21
13.934733
0
LINE
8
Layer 1
10
71.084767
20
13.934733
11
70.379211
21
13.166030
0
LINE
8
Layer 1
10
70.379211
20
13.166030
11
69.647814
21
12.514184
0
LINE
8
Layer 1
10
69.647814
20
12.514184
11
68.879904
21
12.026910
0
LINE
8
Layer 1
10
437.444720
20
22.074380
11
432.062844
21
20.767244
0
LINE
8
Layer 1
10
432.062844
20
20.767244
11
427.905823
21
19.454518
0
LINE
8
Layer 1
10
427.905823
20
19.454518
11
425.084487
21
18.177313
0
LINE
8
Layer 1
10
425.084487
20
18.177313
11
424.209333
21
17.564877
0
LINE
8
Layer 1
10
424.209333
20
17.564877
11
423.709661
21
16.976738
0
LINE
8
Layer 1
10
423.709661
20
16.976738
11
423.612025
21
16.354470
0
LINE
8
Layer 1
10
423.612025
20
16.354470
11
423.951447
21
15.773677
0
LINE
8
Layer 1
10
423.951447
20
15.773677
11
424.673126
21
15.289323
0
LINE
8
Layer 1
10
424.673126
20
15.289323
11
425.722260
21
14.956378
0
LINE
8
Layer 1
10
425.722260
20
14.956378
11
427.023746
21
14.420029
0
LINE
8
Layer 1
10
427.023746
20
14.420029
11
428.309622
21
13.469904
0
LINE
8
Layer 1
10
428.309622
20
13.469904
11
429.292153
21
12.366519
0
LINE
8
Layer 1
10
429.292153
20
12.366519
11
429.579747
21
11.838765
0
LINE
8
Layer 1
10
429.579747
20
11.838765
11
429.683604
21
11.370390
0
LINE
8
Layer 1
10
429.683604
20
11.370390
11
429.756320
21
10.672022
0
LINE
8
Layer 1
10
429.756320
20
10.672022
11
430.206068
21
11.133323
0
LINE
8
Layer 1
10
430.206068
20
11.133323
11
430.690477
21
11.592860
0
LINE
8
Layer 1
10
430.690477
20
11.592860
11
431.052383
21
11.325587
0
LINE
8
Layer 1
10
431.052383
20
11.325587
11
431.447808
21
11.040912
0
LINE
8
Layer 1
10
431.447808
20
11.040912
11
431.928727
21
11.061665
0
LINE
8
Layer 1
10
431.928727
20
11.061665
11
432.334835
21
11.334765
0
LINE
8
Layer 1
10
432.334835
20
11.334765
11
432.505828
21
11.807129
0
LINE
8
Layer 1
10
432.505828
20
11.807129
11
432.402199
21
12.188570
0
LINE
8
Layer 1
10
432.402199
20
12.188570
11
432.153050
21
12.347232
0
LINE
8
Layer 1
10
432.153050
20
12.347232
11
431.903901
21
12.649827
0
LINE
8
Layer 1
10
431.903901
20
12.649827
11
431.800272
21
13.377344
0
LINE
8
Layer 1
10
431.800272
20
13.377344
11
431.843432
21
13.969862
0
LINE
8
Layer 1
10
431.843432
20
13.969862
11
432.113803
21
14.305106
0
LINE
8
Layer 1
10
432.113803
20
14.305106
11
432.822722
21
14.496879
0
LINE
8
Layer 1
10
432.822722
20
14.496879
11
434.181523
21
14.658986
0
LINE
8
Layer 1
10
434.181523
20
14.658986
11
437.386159
21
15.218492
0
LINE
8
Layer 1
10
437.386159
20
15.218492
11
438.219966
21
15.271541
0
LINE
8
Layer 1
10
438.219966
20
15.271541
11
439.150975
21
14.974546
0
LINE
8
Layer 1
10
439.150975
20
14.974546
11
439.946848
21
14.439426
0
LINE
8
Layer 1
10
439.946848
20
14.439426
11
440.375247
21
13.778100
0
LINE
8
Layer 1
10
440.375247
20
13.778100
11
440.459120
21
13.607862
0
LINE
8
Layer 1
10
440.459120
20
13.607862
11
440.578447
21
13.636988
0
LINE
8
Layer 1
10
440.578447
20
13.636988
11
440.917114
21
14.287511
0
LINE
8
Layer 1
10
440.917114
20
14.287511
11
441.690050
21
15.977670
0
LINE
8
Layer 1
10
441.690050
20
15.977670
11
441.882800
21
16.528666
0
LINE
8
Layer 1
10
441.882800
20
16.528666
11
441.833984
21
16.966154
0
LINE
8
Layer 1
10
441.833984
20
16.966154
11
441.996174
21
17.338159
0
LINE
8
Layer 1
10
441.996174
20
17.338159
11
442.695468
21
17.731330
0
LINE
8
Layer 1
10
442.695468
20
17.731330
11
443.579838
21
18.295334
0
LINE
8
Layer 1
10
443.579838
20
18.295334
11
444.122102
21
19.128683
0
LINE
8
Layer 1
10
444.122102
20
19.128683
11
444.525812
21
19.888744
0
LINE
8
Layer 1
10
444.525812
20
19.888744
11
445.012866
21
20.327070
0
LINE
8
Layer 1
10
445.012866
20
20.327070
11
445.401810
21
20.672313
0
LINE
8
Layer 1
10
445.401810
20
20.672313
11
445.540225
21
21.225552
0
LINE
8
Layer 1
10
445.540225
20
21.225552
11
445.425369
21
21.854395
0
LINE
8
Layer 1
10
445.425369
20
21.854395
11
445.054494
21
22.426452
0
LINE
8
Layer 1
10
445.054494
20
22.426452
11
444.180189
21
22.805176
0
LINE
8
Layer 1
10
444.180189
20
22.805176
11
442.622795
21
22.872849
0
LINE
8
Layer 1
10
442.622795
20
22.872849
11
440.378808
21
22.629305
0
LINE
8
Layer 1
10
440.378808
20
22.629305
11
437.444720
21
22.074380
0
LINE
8
Layer 1
10
443.794724
20
21.179029
11
443.438192
21
20.448966
0
LINE
8
Layer 1
10
443.438192
20
20.448966
11
442.529971
21
19.447242
0
LINE
8
Layer 1
10
442.529971
20
19.447242
11
441.312120
21
18.406360
0
LINE
8
Layer 1
10
441.312120
20
18.406360
11
440.026702
21
17.558821
0
LINE
8
Layer 1
10
440.026702
20
17.558821
11
438.642448
21
16.925841
0
LINE
8
Layer 1
10
438.642448
20
16.925841
11
437.049124
21
16.400161
0
LINE
8
Layer 1
10
437.049124
20
16.400161
11
433.486815
21
15.701313
0
LINE
8
Layer 1
10
433.486815
20
15.701313
11
429.842883
21
15.523496
0
LINE
8
Layer 1
10
429.842883
20
15.523496
11
428.147529
21
15.649105
0
LINE
8
Layer 1
10
428.147529
20
15.649105
11
426.620433
21
15.927929
0
LINE
8
Layer 1
10
426.620433
20
15.927929
11
425.008590
21
16.333976
0
LINE
8
Layer 1
10
425.008590
20
16.333976
11
425.846790
21
16.978502
0
LINE
8
Layer 1
10
425.846790
20
16.978502
11
426.984500
21
17.631141
0
LINE
8
Layer 1
10
426.984500
20
17.631141
11
428.395612
21
18.154311
0
LINE
8
Layer 1
10
428.395612
20
18.154311
11
430.664206
21
18.931525
0
LINE
8
Layer 1
10
430.664206
20
18.931525
11
434.111321
21
19.848703
0
LINE
8
Layer 1
10
434.111321
20
19.848703
11
437.756609
21
20.666134
0
LINE
8
Layer 1
10
437.756609
20
20.666134
11
440.619722
21
21.144104
0
LINE
8
Layer 1
10
440.619722
20
21.144104
11
443.530140
21
21.472541
0
LINE
8
Layer 1
10
443.530140
20
21.472541
11
443.717069
21
21.405689
0
LINE
8
Layer 1
10
443.717069
20
21.405689
11
443.794724
21
21.179029
0
LINE
8
Layer 1
10
430.795560
20
13.405566
11
430.649576
21
12.670713
0
LINE
8
Layer 1
10
430.649576
20
12.670713
11
430.411914
21
12.419684
0
LINE
8
Layer 1
10
430.411914
20
12.419684
11
429.975021
21
12.649072
0
LINE
8
Layer 1
10
429.975021
20
12.649072
11
429.231343
21
13.355472
0
LINE
8
Layer 1
10
429.231343
20
13.355472
11
428.096103
21
14.503764
0
LINE
8
Layer 1
10
428.096103
20
14.503764
11
429.507215
21
14.395814
0
LINE
8
Layer 1
10
429.507215
20
14.395814
11
430.673279
21
14.163818
0
LINE
8
Layer 1
10
430.673279
20
14.163818
11
430.821319
21
13.883994
0
LINE
8
Layer 1
10
430.821319
20
13.883994
11
430.795560
21
13.405566
0
LINE
8
Layer 1
10
350.980596
20
23.159172
11
348.419428
21
22.079671
0
LINE
8
Layer 1
10
348.419428
20
22.079671
11
346.922140
21
21.365206
0
LINE
8
Layer 1
10
346.922140
20
21.365206
11
345.706708
21
20.496079
0
LINE
8
Layer 1
10
345.706708
20
20.496079
11
344.799467
21
19.537034
0
LINE
8
Layer 1
10
344.799467
20
19.537034
11
344.226749
21
18.552818
0
LINE
8
Layer 1
10
344.226749
20
18.552818
11
344.014891
21
17.608172
0
LINE
8
Layer 1
10
344.014891
20
17.608172
11
344.190226
21
16.767844
0
LINE
8
Layer 1
10
344.190226
20
16.767844
11
344.779088
21
16.096575
0
LINE
8
Layer 1
10
344.779088
20
16.096575
11
345.807812
21
15.659112
0
LINE
8
Layer 1
10
345.807812
20
15.659112
11
347.133552
21
15.338437
0
LINE
8
Layer 1
10
347.133552
20
15.338437
11
348.707647
21
15.000475
0
LINE
8
Layer 1
10
348.707647
20
15.000475
11
349.837943
21
14.610617
0
LINE
8
Layer 1
10
349.837943
20
14.610617
11
350.664463
21
13.981344
0
LINE
8
Layer 1
10
350.664463
20
13.981344
11
351.174475
21
13.126976
0
LINE
8
Layer 1
10
351.174475
20
13.126976
11
351.355246
21
12.061835
0
LINE
8
Layer 1
10
351.355246
20
12.061835
11
351.462182
21
11.281842
0
LINE
8
Layer 1
10
351.462182
20
11.281842
11
351.576157
21
11.110326
0
LINE
8
Layer 1
10
351.576157
20
11.110326
11
351.719666
21
11.112509
0
LINE
8
Layer 1
10
351.719666
20
11.112509
11
352.007004
21
11.565305
0
LINE
8
Layer 1
10
352.007004
20
11.565305
11
352.049337
21
12.305736
0
LINE
8
Layer 1
10
352.049337
20
12.305736
11
351.860954
21
13.176012
0
LINE
8
Layer 1
10
351.860954
20
13.176012
11
351.456141
21
14.018341
0
LINE
8
Layer 1
10
351.456141
20
14.018341
11
351.016403
21
14.792513
0
LINE
8
Layer 1
10
351.016403
20
14.792513
11
351.484716
21
14.711550
0
LINE
8
Layer 1
10
351.484716
20
14.711550
11
353.390775
21
14.463900
0
LINE
8
Layer 1
10
353.390775
20
14.463900
11
354.378907
21
14.371119
0
LINE
8
Layer 1
10
354.378907
20
14.371119
11
354.371057
21
14.185889
0
LINE
8
Layer 1
10
354.371057
20
14.185889
11
354.099154
21
13.846539
0
LINE
8
Layer 1
10
354.099154
20
13.846539
11
353.530167
21
12.867006
0
LINE
8
Layer 1
10
353.530167
20
12.867006
11
353.441928
21
11.532668
0
LINE
8
Layer 1
10
353.441928
20
11.532668
11
353.581320
21
11.145053
0
LINE
8
Layer 1
10
353.581320
20
11.145053
11
353.867026
21
11.131559
0
LINE
8
Layer 1
10
353.867026
20
11.131559
11
354.088835
21
11.486365
0
LINE
8
Layer 1
10
354.088835
20
11.486365
11
354.083631
21
12.006801
0
LINE
8
Layer 1
10
354.083631
20
12.006801
11
354.215394
21
12.713151
0
LINE
8
Layer 1
10
354.215394
20
12.713151
11
354.846690
21
13.533272
0
LINE
8
Layer 1
10
354.846690
20
13.533272
11
355.425632
21
13.989447
0
LINE
8
Layer 1
10
355.425632
20
13.989447
11
356.123835
21
14.297918
0
LINE
8
Layer 1
10
356.123835
20
14.297918
11
358.510642
21
14.667806
0
LINE
8
Layer 1
10
358.510642
20
14.667806
11
360.865612
21
14.775227
0
LINE
8
Layer 1
10
360.865612
20
14.775227
11
361.187963
21
14.579104
0
LINE
8
Layer 1
10
361.187963
20
14.579104
11
361.244672
21
14.159805
0
LINE
8
Layer 1
10
361.244672
20
14.159805
11
361.330353
21
13.627111
0
LINE
8
Layer 1
10
361.330353
20
13.627111
11
361.536419
21
13.405566
0
LINE
8
Layer 1
10
361.536419
20
13.405566
11
361.696713
21
13.716452
0
LINE
8
Layer 1
10
361.696713
20
13.716452
11
361.672592
21
14.463900
0
LINE
8
Layer 1
10
361.672592
20
14.463900
11
361.668050
21
15.231324
0
LINE
8
Layer 1
10
361.668050
20
15.231324
11
361.910364
21
15.522234
0
LINE
8
Layer 1
10
361.910364
20
15.522234
11
362.199967
21
15.647630
0
LINE
8
Layer 1
10
362.199967
20
15.647630
11
362.274828
21
16.086458
0
LINE
8
Layer 1
10
362.274828
20
16.086458
11
361.760081
21
18.280252
0
LINE
8
Layer 1
10
361.760081
20
18.280252
11
361.220815
21
19.625439
0
LINE
8
Layer 1
10
361.220815
20
19.625439
11
360.947727
21
19.984385
0
LINE
8
Layer 1
10
360.947727
20
19.984385
11
360.687636
21
20.108348
0
LINE
8
Layer 1
10
360.687636
20
20.108348
11
360.112056
21
20.286209
0
LINE
8
Layer 1
10
360.112056
20
20.286209
11
359.258532
21
20.767117
0
LINE
8
Layer 1
10
359.258532
20
20.767117
11
357.213478
21
22.322030
0
LINE
8
Layer 1
10
357.213478
20
22.322030
11
356.593911
21
22.717803
0
LINE
8
Layer 1
10
356.593911
20
22.717803
11
356.096583
21
22.790519
0
LINE
8
Layer 1
10
356.096583
20
22.790519
11
355.692564
21
22.793341
0
LINE
8
Layer 1
10
355.692564
20
22.793341
11
355.297540
21
23.021589
0
LINE
8
Layer 1
10
355.297540
20
23.021589
11
354.527917
21
23.350020
0
LINE
8
Layer 1
10
354.527917
20
23.350020
11
353.304036
21
23.490298
0
LINE
8
Layer 1
10
353.304036
20
23.490298
11
351.997672
21
23.430618
0
LINE
8
Layer 1
10
351.997672
20
23.430618
11
350.980596
21
23.159172
0
LINE
8
Layer 1
10
355.389263
20
21.278865
11
357.377371
21
20.336761
0
LINE
8
Layer 1
10
357.377371
20
20.336761
11
359.270923
21
19.086086
0
LINE
8
Layer 1
10
359.270923
20
19.086086
11
360.687498
21
17.817816
0
LINE
8
Layer 1
10
360.687498
20
17.817816
11
361.097411
21
17.268012
0
LINE
8
Layer 1
10
361.097411
20
17.268012
11
361.244672
21
16.822926
0
LINE
8
Layer 1
10
361.244672
20
16.822926
11
360.098143
21
16.182282
0
LINE
8
Layer 1
10
360.098143
20
16.182282
11
358.843509
21
15.867146
0
LINE
8
Layer 1
10
358.843509
20
15.867146
11
357.059562
21
15.697763
0
LINE
8
Layer 1
10
357.059562
20
15.697763
11
352.637638
21
15.750217
0
LINE
8
Layer 1
10
352.637638
20
15.750217
11
348.300183
21
16.247568
0
LINE
8
Layer 1
10
348.300183
20
16.247568
11
346.621822
21
16.634306
0
LINE
8
Layer 1
10
346.621822
20
16.634306
11
345.515007
21
17.097741
0
LINE
8
Layer 1
10
345.515007
20
17.097741
11
344.973856
21
17.613976
0
LINE
8
Layer 1
10
344.973856
20
17.613976
11
344.928072
21
18.159250
0
LINE
8
Layer 1
10
344.928072
20
18.159250
11
345.390685
21
18.769875
0
LINE
8
Layer 1
10
345.390685
20
18.769875
11
346.374727
21
19.482167
0
LINE
8
Layer 1
10
346.374727
20
19.482167
11
348.120730
21
20.355315
0
LINE
8
Layer 1
10
348.120730
20
20.355315
11
350.328530
21
21.214572
0
LINE
8
Layer 1
10
350.328530
20
21.214572
11
352.336636
21
21.828692
0
LINE
8
Layer 1
10
352.336636
20
21.828692
11
353.483556
21
21.966430
0
LINE
8
Layer 1
10
353.483556
20
21.966430
11
355.389263
21
21.278865
0
LINE
8
Layer 1
10
682.272652
20
20.437843
11
679.279816
21
19.383522
0
LINE
8
Layer 1
10
679.279816
20
19.383522
11
676.790482
21
18.333169
0
LINE
8
Layer 1
10
676.790482
20
18.333169
11
674.239897
21
17.286124
0
LINE
8
Layer 1
10
674.239897
20
17.286124
11
673.872655
21
17.006503
0
LINE
8
Layer 1
10
673.872655
20
17.006503
11
673.580555
21
16.333976
0
LINE
8
Layer 1
10
673.580555
20
16.333976
11
673.533812
21
15.507285
0
LINE
8
Layer 1
10
673.533812
20
15.507285
11
673.994011
21
15.011059
0
LINE
8
Layer 1
10
673.994011
20
15.011059
11
675.454159
21
13.869469
0
LINE
8
Layer 1
10
675.454159
20
13.869469
11
676.084529
21
13.421838
0
LINE
8
Layer 1
10
676.084529
20
13.421838
11
676.465926
21
13.428497
0
LINE
8
Layer 1
10
676.465926
20
13.428497
11
676.966254
21
13.661418
0
LINE
8
Layer 1
10
676.966254
20
13.661418
11
677.883035
21
13.758344
0
LINE
8
Layer 1
10
677.883035
20
13.758344
11
679.304213
21
13.388936
0
LINE
8
Layer 1
10
679.304213
20
13.388936
11
680.880502
21
12.507526
0
LINE
8
Layer 1
10
680.880502
20
12.507526
11
682.117198
21
11.454334
0
LINE
8
Layer 1
10
682.117198
20
11.454334
11
682.453604
21
10.969640
0
LINE
8
Layer 1
10
682.453604
20
10.969640
11
682.519597
21
10.569584
0
LINE
8
Layer 1
10
682.519597
20
10.569584
11
682.495608
21
9.995129
0
LINE
8
Layer 1
10
682.495608
20
9.995129
11
682.663177
21
9.475972
0
LINE
8
Layer 1
10
682.663177
20
9.475972
11
682.796356
21
9.349341
0
LINE
8
Layer 1
10
682.796356
20
9.349341
11
682.892527
21
9.447441
0
LINE
8
Layer 1
10
682.892527
20
9.447441
11
682.972916
21
10.315583
0
LINE
8
Layer 1
10
682.972916
20
10.315583
11
682.923202
21
11.004013
0
LINE
8
Layer 1
10
682.923202
20
11.004013
11
682.745066
21
11.581483
0
LINE
8
Layer 1
10
682.745066
20
11.581483
11
681.867663
21
12.696835
0
LINE
8
Layer 1
10
681.867663
20
12.696835
11
680.756765
21
13.758344
0
LINE
8
Layer 1
10
680.756765
20
13.758344
11
682.485024
21
13.763283
0
LINE
8
Layer 1
10
682.485024
20
13.763283
11
685.088173
21
14.002114
0
LINE
8
Layer 1
10
685.088173
20
14.002114
11
685.774238
21
14.089603
0
LINE
8
Layer 1
10
685.774238
20
14.089603
11
685.372865
21
13.334658
0
LINE
8
Layer 1
10
685.372865
20
13.334658
11
684.843659
21
12.148701
0
LINE
8
Layer 1
10
684.843659
20
12.148701
11
684.639396
21
10.904767
0
LINE
8
Layer 1
10
684.639396
20
10.904767
11
684.770557
21
9.923366
0
LINE
8
Layer 1
10
684.770557
20
9.923366
11
684.965199
21
9.631275
0
LINE
8
Layer 1
10
684.965199
20
9.631275
11
685.247629
21
9.525008
0
LINE
8
Layer 1
10
685.247629
20
9.525008
11
685.685024
21
9.739706
0
LINE
8
Layer 1
10
685.685024
20
9.739706
11
685.969986
21
10.255170
0
LINE
8
Layer 1
10
685.969986
20
10.255170
11
686.042024
21
10.878452
0
LINE
8
Layer 1
10
686.042024
20
10.878452
11
685.840649
21
11.416604
0
LINE
8
Layer 1
10
685.840649
20
11.416604
11
685.715401
21
11.691379
0
LINE
8
Layer 1
10
685.715401
20
11.691379
11
685.748838
21
12.047944
0
LINE
8
Layer 1
10
685.748838
20
12.047944
11
686.324307
21
13.120874
0
LINE
8
Layer 1
10
686.324307
20
13.120874
11
686.836728
21
13.790458
0
LINE
8
Layer 1
10
686.836728
20
13.790458
11
687.358741
21
14.203991
0
LINE
8
Layer 1
10
687.358741
20
14.203991
11
688.053394
21
14.449910
0
LINE
8
Layer 1
10
688.053394
20
14.449910
11
689.083737
21
14.616653
0
LINE
8
Layer 1
10
689.083737
20
14.616653
11
690.957038
21
14.936066
0
LINE
8
Layer 1
10
690.957038
20
14.936066
11
692.683792
21
15.377816
0
LINE
8
Layer 1
10
692.683792
20
15.377816
11
694.010695
21
15.864875
0
LINE
8
Layer 1
10
694.010695
20
15.864875
11
694.684440
21
16.320218
0
LINE
8
Layer 1
10
694.684440
20
16.320218
11
694.881996
21
16.906138
0
LINE
8
Layer 1
10
694.881996
20
16.906138
11
694.967368
21
17.701344
0
LINE
8
Layer 1
10
694.967368
20
17.701344
11
694.734844
21
18.578631
0
LINE
8
Layer 1
10
694.734844
20
18.578631
11
694.024746
21
19.361561
0
LINE
8
Layer 1
10
694.024746
20
19.361561
11
692.834164
21
20.052482
0
LINE
8
Layer 1
10
692.834164
20
20.052482
11
691.160188
21
20.653743
0
LINE
8
Layer 1
10
691.160188
20
20.653743
11
688.847188
21
21.204606
0
LINE
8
Layer 1
10
688.847188
20
21.204606
11
686.821195
21
21.357799
0
LINE
8
Layer 1
10
686.821195
20
21.357799
11
684.742815
21
21.104990
0
LINE
8
Layer 1
10
684.742815
20
21.104990
11
682.272652
21
20.437843
0
LINE
8
Layer 1
10
691.847047
20
19.105753
11
693.031780
21
18.533977
0
LINE
8
Layer 1
10
693.031780
20
18.533977
11
693.630825
21
18.068233
0
LINE
8
Layer 1
10
693.630825
20
18.068233
11
693.676295
21
17.665195
0
LINE
8
Layer 1
10
693.676295
20
17.665195
11
693.200303
21
17.281538
0
LINE
8
Layer 1
10
693.200303
20
17.281538
11
692.212289
21
16.891906
0
LINE
8
Layer 1
10
692.212289
20
16.891906
11
690.793900
21
16.522718
0
LINE
8
Layer 1
10
690.793900
20
16.522718
11
687.070565
21
15.897281
0
LINE
8
Layer 1
10
687.070565
20
15.897281
11
682.839428
21
15.508448
0
LINE
8
Layer 1
10
682.839428
20
15.508448
11
678.909619
21
15.459440
0
LINE
8
Layer 1
10
678.909619
20
15.459440
11
678.144218
21
15.519412
0
LINE
8
Layer 1
10
678.144218
20
15.519412
11
677.720890
21
15.657965
0
LINE
8
Layer 1
10
677.720890
20
15.657965
11
677.546204
21
15.940849
0
LINE
8
Layer 1
10
677.546204
20
15.940849
11
677.526730
21
16.433812
0
LINE
8
Layer 1
10
677.526730
20
16.433812
11
677.616115
21
16.911562
0
LINE
8
Layer 1
10
677.616115
20
16.911562
11
677.873510
21
17.300941
0
LINE
8
Layer 1
10
677.873510
20
17.300941
11
679.113525
21
18.037894
0
LINE
8
Layer 1
10
679.113525
20
18.037894
11
682.615927
21
19.292632
0
LINE
8
Layer 1
10
682.615927
20
19.292632
11
684.328342
21
19.676499
0
LINE
8
Layer 1
10
684.328342
20
19.676499
11
685.993049
21
19.896196
0
LINE
8
Layer 1
10
685.993049
20
19.896196
11
687.593660
21
19.950347
0
LINE
8
Layer 1
10
687.593660
20
19.950347
11
689.113789
21
19.837574
0
LINE
8
Layer 1
10
689.113789
20
19.837574
11
690.537047
21
19.556502
0
LINE
8
Layer 1
10
690.537047
20
19.556502
11
691.847047
21
19.105753
0
LINE
8
Layer 1
10
306.669210
20
23.389536
11
305.804683
21
22.923252
0
LINE
8
Layer 1
10
305.804683
20
22.923252
11
304.817125
21
22.014055
0
LINE
8
Layer 1
10
304.817125
20
22.014055
11
304.113564
21
20.980811
0
LINE
8
Layer 1
10
304.113564
20
20.980811
11
303.787030
21
19.946500
0
LINE
8
Layer 1
10
303.787030
20
19.946500
11
303.819759
21
18.941012
0
LINE
8
Layer 1
10
303.819759
20
18.941012
11
304.193987
21
17.994238
0
LINE
8
Layer 1
10
304.193987
20
17.994238
11
304.891949
21
17.136065
0
LINE
8
Layer 1
10
304.891949
20
17.136065
11
305.895882
21
16.396385
0
LINE
8
Layer 1
10
305.895882
20
16.396385
11
307.188020
21
15.805086
0
LINE
8
Layer 1
10
307.188020
20
15.805086
11
308.750600
21
15.392059
0
LINE
8
Layer 1
10
308.750600
20
15.392059
11
311.708952
21
14.723060
0
LINE
8
Layer 1
10
311.708952
20
14.723060
11
312.235314
21
14.367674
0
LINE
8
Layer 1
10
312.235314
20
14.367674
11
312.547197
21
13.824666
0
LINE
8
Layer 1
10
312.547197
20
13.824666
11
312.779501
21
13.085773
0
LINE
8
Layer 1
10
312.779501
20
13.085773
11
312.589530
21
12.768096
0
LINE
8
Layer 1
10
312.589530
20
12.768096
11
312.320449
21
12.472248
0
LINE
8
Layer 1
10
312.320449
20
12.472248
11
312.208530
21
11.939068
0
LINE
8
Layer 1
10
312.208530
20
11.939068
11
312.358328
21
11.438211
0
LINE
8
Layer 1
10
312.358328
20
11.438211
11
312.825891
21
11.364392
0
LINE
8
Layer 1
10
312.825891
20
11.364392
11
313.126436
21
11.496772
0
LINE
8
Layer 1
10
313.126436
20
11.496772
11
313.303553
21
11.783405
0
LINE
8
Layer 1
10
313.303553
20
11.783405
11
313.366347
21
13.067605
0
LINE
8
Layer 1
10
313.366347
20
13.067605
11
313.289442
21
14.643464
0
LINE
8
Layer 1
10
313.289442
20
14.643464
11
314.867771
21
14.517875
0
LINE
8
Layer 1
10
314.867771
20
14.517875
11
316.446099
21
14.392639
0
LINE
8
Layer 1
10
316.446099
20
14.392639
11
315.545457
21
13.683908
0
LINE
8
Layer 1
10
315.545457
20
13.683908
11
314.940707
21
13.089918
0
LINE
8
Layer 1
10
314.940707
20
13.089918
11
314.751354
21
12.656266
0
LINE
8
Layer 1
10
314.751354
20
12.656266
11
315.220681
21
12.755837
0
LINE
8
Layer 1
10
315.220681
20
12.755837
11
316.199860
21
13.443313
0
LINE
8
Layer 1
10
316.199860
20
13.443313
11
317.524939
21
14.305900
0
LINE
8
Layer 1
10
317.524939
20
14.305900
11
318.104018
21
14.407274
0
LINE
8
Layer 1
10
318.104018
20
14.407274
11
318.793131
21
14.346425
0
LINE
8
Layer 1
10
318.793131
20
14.346425
11
319.829946
21
14.016842
0
LINE
8
Layer 1
10
319.829946
20
14.016842
11
320.565135
21
13.509988
0
LINE
8
Layer 1
10
320.565135
20
13.509988
11
320.967743
21
13.081760
0
LINE
8
Layer 1
10
320.967743
20
13.081760
11
320.897805
21
13.477180
0
LINE
8
Layer 1
10
320.897805
20
13.477180
11
321.029876
21
14.149487
0
LINE
8
Layer 1
10
321.029876
20
14.149487
11
321.751175
21
14.953556
0
LINE
8
Layer 1
10
321.751175
20
14.953556
11
322.370036
21
15.606840
0
LINE
8
Layer 1
10
322.370036
20
15.606840
11
322.737542
21
16.249177
0
LINE
8
Layer 1
10
322.737542
20
16.249177
11
322.799719
21
16.738651
0
LINE
8
Layer 1
10
322.799719
20
16.738651
11
322.502592
21
16.933346
0
LINE
8
Layer 1
10
322.502592
20
16.933346
11
319.944952
21
18.691239
0
LINE
8
Layer 1
10
319.944952
20
18.691239
11
318.236095
21
19.908499
0
LINE
8
Layer 1
10
318.236095
20
19.908499
11
317.312522
21
20.366934
0
LINE
8
Layer 1
10
317.312522
20
20.366934
11
316.137507
21
20.653258
0
LINE
8
Layer 1
10
316.137507
20
20.653258
11
312.914086
21
21.973838
0
LINE
8
Layer 1
10
312.914086
20
21.973838
11
311.855752
21
22.406697
0
LINE
8
Layer 1
10
311.855752
20
22.406697
11
311.150196
21
22.646586
0
LINE
8
Layer 1
10
311.150196
20
22.646586
11
308.913363
21
23.361314
0
LINE
8
Layer 1
10
308.913363
20
23.361314
11
307.773758
21
23.588150
0
LINE
8
Layer 1
10
307.773758
20
23.588150
11
306.669210
21
23.389536
0
LINE
8
Layer 1
10
312.561308
20
20.391276
11
315.012365
21
19.520151
0
LINE
8
Layer 1
10
315.012365
20
19.520151
11
317.160475
21
18.582451
0
LINE
8
Layer 1
10
317.160475
20
18.582451
11
318.684696
21
17.734246
0
LINE
8
Layer 1
10
318.684696
20
17.734246
11
319.264090
21
17.131607
0
LINE
8
Layer 1
10
319.264090
20
17.131607
11
319.478226
21
16.080329
0
LINE
8
Layer 1
10
319.478226
20
16.080329
11
319.491345
21
15.790720
0
LINE
8
Layer 1
10
319.491345
20
15.790720
11
319.161961
21
15.621365
0
LINE
8
Layer 1
10
319.161961
20
15.621365
11
316.920586
21
15.522234
0
LINE
8
Layer 1
10
316.920586
20
15.522234
11
314.603628
21
15.642807
0
LINE
8
Layer 1
10
314.603628
20
15.642807
11
311.974197
21
15.962413
0
LINE
8
Layer 1
10
311.974197
20
15.962413
11
309.451790
21
16.417882
0
LINE
8
Layer 1
10
309.451790
20
16.417882
11
307.455905
21
16.946046
0
LINE
8
Layer 1
10
307.455905
20
16.946046
11
306.484872
21
17.442504
0
LINE
8
Layer 1
10
306.484872
20
17.442504
11
305.506365
21
18.188001
0
LINE
8
Layer 1
10
305.506365
20
18.188001
11
304.750505
21
18.978742
0
LINE
8
Layer 1
10
304.750505
20
18.978742
11
304.447414
21
19.610931
0
LINE
8
Layer 1
10
304.447414
20
19.610931
11
304.824093
21
20.216078
0
LINE
8
Layer 1
10
304.824093
20
20.216078
11
305.729409
21
21.068610
0
LINE
8
Layer 1
10
305.729409
20
21.068610
11
306.559760
21
21.712722
0
LINE
8
Layer 1
10
306.559760
20
21.712722
11
306.942533
21
21.856376
0
LINE
8
Layer 1
10
306.942533
20
21.856376
11
307.438001
21
21.867784
0
LINE
8
Layer 1
10
307.438001
20
21.867784
11
309.169921
21
21.453926
0
LINE
8
Layer 1
10
309.169921
20
21.453926
11
312.561308
21
20.391276
0
LINE
8
Layer 1
10
485.069750
20
22.549572
11
481.365581
21
21.848602
0
LINE
8
Layer 1
10
481.365581
20
21.848602
11
478.241826
21
21.232734
0
LINE
8
Layer 1
10
478.241826
20
21.232734
11
474.564065
21
20.330554
0
LINE
8
Layer 1
10
474.564065
20
20.330554
11
470.913623
21
19.295751
0
LINE
8
Layer 1
10
470.913623
20
19.295751
11
467.871822
21
18.282016
0
LINE
8
Layer 1
10
467.871822
20
18.282016
11
465.424822
21
17.216318
0
LINE
8
Layer 1
10
465.424822
20
17.216318
11
465.044235
21
16.790708
0
LINE
8
Layer 1
10
465.044235
20
16.790708
11
464.961404
21
16.252484
0
LINE
8
Layer 1
10
464.961404
20
16.252484
11
465.044616
21
15.737010
0
LINE
8
Layer 1
10
465.044616
20
15.737010
11
465.337642
21
15.256063
0
LINE
8
Layer 1
10
465.337642
20
15.256063
11
466.813488
21
14.094541
0
LINE
8
Layer 1
10
466.813488
20
14.094541
11
468.277032
21
12.910707
0
LINE
8
Layer 1
10
468.277032
20
12.910707
11
469.194740
21
11.775026
0
LINE
8
Layer 1
10
469.194740
20
11.775026
11
469.725814
21
11.067827
0
LINE
8
Layer 1
10
469.725814
20
11.067827
11
470.424965
21
10.687588
0
LINE
8
Layer 1
10
470.424965
20
10.687588
11
471.192511
21
10.661890
0
LINE
8
Layer 1
10
471.192511
20
10.661890
11
471.928769
21
11.018317
0
LINE
8
Layer 1
10
471.928769
20
11.018317
11
472.277700
21
11.450542
0
LINE
8
Layer 1
10
472.277700
20
11.450542
11
472.349016
21
11.882403
0
LINE
8
Layer 1
10
472.349016
20
11.882403
11
472.158263
21
12.214450
0
LINE
8
Layer 1
10
472.158263
20
12.214450
11
471.720983
21
12.347232
0
LINE
8
Layer 1
10
471.720983
20
12.347232
11
471.274333
21
12.553772
0
LINE
8
Layer 1
10
471.274333
20
12.553772
11
470.793883
21
13.058962
0
LINE
8
Layer 1
10
470.793883
20
13.058962
11
470.410005
21
13.691151
0
LINE
8
Layer 1
10
470.410005
20
13.691151
11
470.253074
21
14.278692
0
LINE
8
Layer 1
10
470.253074
20
14.278692
11
472.281547
21
14.639583
0
LINE
8
Layer 1
10
472.281547
20
14.639583
11
475.292508
21
15.242128
0
LINE
8
Layer 1
10
475.292508
20
15.242128
11
476.359705
21
15.413755
0
LINE
8
Layer 1
10
476.359705
20
15.413755
11
477.673759
21
14.987423
0
LINE
8
Layer 1
10
477.673759
20
14.987423
11
478.661670
21
14.381967
0
LINE
8
Layer 1
10
478.661670
20
14.381967
11
479.072524
21
13.811966
0
LINE
8
Layer 1
10
479.072524
20
13.811966
11
479.157455
21
13.734432
0
LINE
8
Layer 1
10
479.157455
20
13.734432
11
479.388701
21
13.925914
0
LINE
8
Layer 1
10
479.388701
20
13.925914
11
480.148850
21
14.964845
0
LINE
8
Layer 1
10
480.148850
20
14.964845
11
480.853480
21
16.219015
0
LINE
8
Layer 1
10
480.853480
20
16.219015
11
481.036086
21
16.851149
0
LINE
8
Layer 1
10
481.036086
20
16.851149
11
481.176679
21
17.127881
0
LINE
8
Layer 1
10
481.176679
20
17.127881
11
481.763956
21
17.508992
0
LINE
8
Layer 1
10
481.763956
20
17.508992
11
482.520697
21
17.846313
0
LINE
8
Layer 1
10
482.520697
20
17.846313
11
483.169688
21
17.991680
0
LINE
8
Layer 1
10
483.169688
20
17.991680
11
483.514969
21
18.071584
0
LINE
8
Layer 1
10
483.514969
20
18.071584
11
483.658638
21
18.263672
0
LINE
8
Layer 1
10
483.658638
20
18.263672
11
484.150940
21
18.711876
0
LINE
8
Layer 1
10
484.150940
20
18.711876
11
485.334333
21
19.407731
0
LINE
8
Layer 1
10
485.334333
20
19.407731
11
487.623113
21
20.805349
0
LINE
8
Layer 1
10
487.623113
20
20.805349
11
488.102588
21
21.352618
0
LINE
8
Layer 1
10
488.102588
20
21.352618
11
488.244752
21
21.889171
0
LINE
8
Layer 1
10
488.244752
20
21.889171
11
488.059858
21
22.497928
0
LINE
8
Layer 1
10
488.059858
20
22.497928
11
487.487117
21
22.807144
0
LINE
8
Layer 1
10
487.487117
20
22.807144
11
486.499443
21
22.822473
0
LINE
8
Layer 1
10
486.499443
20
22.822473
11
485.069750
21
22.549572
0
LINE
8
Layer 1
10
484.893361
20
20.597651
11
482.809694
21
19.305602
0
LINE
8
Layer 1
10
482.809694
20
19.305602
11
480.015720
21
18.013023
0
LINE
8
Layer 1
10
480.015720
20
18.013023
11
476.898756
21
16.878930
0
LINE
8
Layer 1
10
476.898756
20
16.878930
11
473.846118
21
16.062337
0
LINE
8
Layer 1
10
473.846118
20
16.062337
11
471.555641
21
15.706957
0
LINE
8
Layer 1
10
471.555641
20
15.706957
11
469.260004
21
15.541284
0
LINE
8
Layer 1
10
469.260004
20
15.541284
11
467.438765
21
15.580134
0
LINE
8
Layer 1
10
467.438765
20
15.580134
11
466.571483
21
15.838323
0
LINE
8
Layer 1
10
466.571483
20
15.838323
11
466.751189
21
16.167956
0
LINE
8
Layer 1
10
466.751189
20
16.167956
11
467.554907
21
16.617676
0
LINE
8
Layer 1
10
467.554907
20
16.617676
11
470.689990
21
17.768107
0
LINE
8
Layer 1
10
470.689990
20
17.768107
11
475.287955
21
19.071070
0
LINE
8
Layer 1
10
475.287955
20
19.071070
11
480.660025
21
20.308020
0
LINE
8
Layer 1
10
480.660025
20
20.308020
11
484.925905
21
21.090482
0
LINE
8
Layer 1
10
484.925905
20
21.090482
11
485.298405
21
20.993325
0
LINE
8
Layer 1
10
485.298405
20
20.993325
11
484.893361
21
20.597651
0
LINE
8
Layer 1
10
469.570449
20
13.733650
11
469.895302
21
13.062247
0
LINE
8
Layer 1
10
469.895302
20
13.062247
11
469.840412
21
12.752133
0
LINE
8
Layer 1
10
469.840412
20
12.752133
11
469.460216
21
12.832147
0
LINE
8
Layer 1
10
469.460216
20
12.832147
11
468.809154
21
13.331130
0
LINE
8
Layer 1
10
468.809154
20
13.331130
11
468.011214
21
14.180972
0
LINE
8
Layer 1
10
468.011214
20
14.180972
11
468.100186
21
14.296330
0
LINE
8
Layer 1
10
468.100186
20
14.296330
11
468.484598
21
14.294214
0
LINE
8
Layer 1
10
468.484598
20
14.294214
11
469.119731
21
14.106271
0
LINE
8
Layer 1
10
469.119731
20
14.106271
11
469.570449
21
13.733650
0
LINE
8
Layer 1
10
95.695266
20
21.270752
11
95.404974
21
20.986104
0
LINE
8
Layer 1
10
95.404974
20
20.986104
11
95.602838
21
21.031921
0
LINE
8
Layer 1
10
95.602838
20
21.031921
11
95.952441
21
21.148514
0
LINE
8
Layer 1
10
95.952441
20
21.148514
11
95.647994
21
20.705248
0
LINE
8
Layer 1
10
95.647994
20
20.705248
11
95.388658
21
20.260880
0
LINE
8
Layer 1
10
95.388658
20
20.260880
11
95.559799
21
20.108348
0
LINE
8
Layer 1
10
95.559799
20
20.108348
11
95.839332
21
19.902458
0
LINE
8
Layer 1
10
95.839332
20
19.902458
11
95.955616
21
19.407378
0
LINE
8
Layer 1
10
95.955616
20
19.407378
11
96.033382
21
19.067477
0
LINE
8
Layer 1
10
96.033382
20
19.067477
11
96.267384
21
18.750858
0
LINE
8
Layer 1
10
96.267384
20
18.750858
11
97.208331
21
18.183238
0
LINE
8
Layer 1
10
97.208331
20
18.183238
11
98.064567
21
17.681059
0
LINE
8
Layer 1
10
98.064567
20
17.681059
11
98.364384
21
17.208513
0
LINE
8
Layer 1
10
98.364384
20
17.208513
11
98.555088
21
16.271143
0
LINE
8
Layer 1
10
98.555088
20
16.271143
11
99.115316
21
14.747225
0
LINE
8
Layer 1
10
99.115316
20
14.747225
11
99.762129
21
13.326825
0
LINE
8
Layer 1
10
99.762129
20
13.326825
11
100.212588
21
12.700010
0
LINE
8
Layer 1
10
100.212588
20
12.700010
11
100.441541
21
12.908634
0
LINE
8
Layer 1
10
100.441541
20
12.908634
11
100.645094
21
13.410152
0
LINE
8
Layer 1
10
100.645094
20
13.410152
11
100.836356
21
13.813226
0
LINE
8
Layer 1
10
100.836356
20
13.813226
11
101.173081
21
14.166778
0
LINE
8
Layer 1
10
101.173081
20
14.166778
11
102.195641
21
14.696689
0
LINE
8
Layer 1
10
102.195641
20
14.696689
11
103.538215
21
14.942636
0
LINE
8
Layer 1
10
103.538215
20
14.942636
11
105.026244
21
14.847370
0
LINE
8
Layer 1
10
105.026244
20
14.847370
11
109.272985
21
14.086075
0
LINE
8
Layer 1
10
109.272985
20
14.086075
11
111.830626
21
13.542091
0
LINE
8
Layer 1
10
111.830626
20
13.542091
11
111.668657
21
12.915943
0
LINE
8
Layer 1
10
111.668657
20
12.915943
11
111.261683
21
12.299254
0
LINE
8
Layer 1
10
111.261683
20
12.299254
11
110.728107
21
11.828880
0
LINE
8
Layer 1
10
110.728107
20
11.828880
11
110.186328
21
11.641676
0
LINE
8
Layer 1
10
110.186328
20
11.641676
11
109.589075
21
11.497831
0
LINE
8
Layer 1
10
109.589075
20
11.497831
11
109.361180
21
11.120623
0
LINE
8
Layer 1
10
109.361180
20
11.120623
11
109.638017
21
10.564044
0
LINE
8
Layer 1
10
109.638017
20
10.564044
11
110.270950
21
10.013120
0
LINE
8
Layer 1
10
110.270950
20
10.013120
11
110.963613
21
9.668109
0
LINE
8
Layer 1
10
110.963613
20
9.668109
11
111.419640
21
9.729266
0
LINE
8
Layer 1
10
111.419640
20
9.729266
11
111.734141
21
9.958793
0
LINE
8
Layer 1
10
111.734141
20
9.958793
11
112.160826
21
10.054175
0
LINE
8
Layer 1
10
112.160826
20
10.054175
11
112.605856
21
10.365061
0
LINE
8
Layer 1
10
112.605856
20
10.365061
11
112.964102
21
11.112509
0
LINE
8
Layer 1
10
112.964102
20
11.112509
11
113.664498
21
12.268915
0
LINE
8
Layer 1
10
113.664498
20
12.268915
11
115.010214
21
13.581955
0
LINE
8
Layer 1
10
115.010214
20
13.581955
11
116.324191
21
14.820889
0
LINE
8
Layer 1
10
116.324191
20
14.820889
11
116.659144
21
15.332869
0
LINE
8
Layer 1
10
116.659144
20
15.332869
11
116.779925
21
15.789552
0
LINE
8
Layer 1
10
116.779925
20
15.789552
11
116.686922
21
16.203206
0
LINE
8
Layer 1
10
116.686922
20
16.203206
11
116.380525
21
16.586102
0
LINE
8
Layer 1
10
116.380525
20
16.586102
11
115.129100
21
17.308702
0
LINE
8
Layer 1
10
115.129100
20
17.308702
11
112.042293
21
18.364566
0
LINE
8
Layer 1
10
112.042293
20
18.364566
11
110.066736
21
18.873625
0
LINE
8
Layer 1
10
110.066736
20
18.873625
11
105.657011
21
19.975703
0
LINE
8
Layer 1
10
105.657011
20
19.975703
11
102.305620
21
20.632929
0
LINE
8
Layer 1
10
102.305620
20
20.632929
11
97.988323
21
21.454196
0
LINE
8
Layer 1
10
97.988323
20
21.454196
11
96.534481
21
21.606552
0
LINE
8
Layer 1
10
96.534481
20
21.606552
11
96.074640
21
21.502565
0
LINE
8
Layer 1
10
96.074640
20
21.502565
11
95.695266
21
21.270752
0
LINE
8
Layer 1
10
101.287503
20
19.722409
11
103.893121
21
19.224639
0
LINE
8
Layer 1
10
103.893121
20
19.224639
11
106.186178
21
18.708878
0
LINE
8
Layer 1
10
106.186178
20
18.708878
11
109.162213
21
17.955344
0
LINE
8
Layer 1
10
109.162213
20
17.955344
11
113.117119
21
16.762513
0
LINE
8
Layer 1
10
113.117119
20
16.762513
11
114.559518
21
16.201552
0
LINE
8
Layer 1
10
114.559518
20
16.201552
11
115.219411
21
15.814687
0
LINE
8
Layer 1
10
115.219411
20
15.814687
11
115.052670
21
15.662658
0
LINE
8
Layer 1
10
115.052670
20
15.662658
11
114.399170
21
15.572786
0
LINE
8
Layer 1
10
114.399170
20
15.572786
11
112.080657
21
15.563818
0
LINE
8
Layer 1
10
112.080657
20
15.563818
11
109.161408
21
15.756396
0
LINE
8
Layer 1
10
109.161408
20
15.756396
11
106.538956
21
16.119134
0
LINE
8
Layer 1
10
106.538956
20
16.119134
11
103.847304
21
16.881526
0
LINE
8
Layer 1
10
103.847304
20
16.881526
11
100.834183
21
18.023298
0
LINE
8
Layer 1
10
100.834183
20
18.023298
11
98.380391
21
19.174925
0
LINE
8
Layer 1
10
98.380391
20
19.174925
11
97.638494
21
19.638958
0
LINE
8
Layer 1
10
97.638494
20
19.638958
11
97.366728
21
19.966884
0
LINE
8
Layer 1
10
97.366728
20
19.966884
11
97.712351
21
20.095571
0
LINE
8
Layer 1
10
97.712351
20
20.095571
11
98.615121
21
20.089386
0
LINE
8
Layer 1
10
98.615121
20
20.089386
11
101.287503
21
19.722409
0
LINE
8
Layer 1
10
112.820521
20
12.914852
11
113.124042
21
13.365349
0
LINE
8
Layer 1
10
113.124042
20
13.365349
11
113.702466
21
13.706838
0
LINE
8
Layer 1
10
113.702466
20
13.706838
11
114.232162
21
13.815185
0
LINE
8
Layer 1
10
114.232162
20
13.815185
11
113.594516
21
13.178730
0
LINE
8
Layer 1
10
113.594516
20
13.178730
11
112.950873
21
12.704552
0
LINE
8
Layer 1
10
112.950873
20
12.704552
11
112.824181
21
12.725052
0
LINE
8
Layer 1
10
112.824181
20
12.725052
11
112.820521
21
12.914852
0
LINE
8
Layer 1
10
646.521071
20
21.280629
11
645.762246
21
20.954310
0
LINE
8
Layer 1
10
645.762246
20
20.954310
11
640.411177
21
19.466072
0
LINE
8
Layer 1
10
640.411177
20
19.466072
11
635.739823
21
17.862210
0
LINE
8
Layer 1
10
635.739823
20
17.862210
11
635.034267
21
17.535185
0
LINE
8
Layer 1
10
635.034267
20
17.535185
11
634.594808
21
17.575335
0
LINE
8
Layer 1
10
634.594808
20
17.575335
11
634.037895
21
17.463213
0
LINE
8
Layer 1
10
634.037895
20
17.463213
11
632.771681
21
16.898024
0
LINE
8
Layer 1
10
632.771681
20
16.898024
11
631.635576
21
16.071361
0
LINE
8
Layer 1
10
631.635576
20
16.071361
11
631.029531
21
15.214964
0
LINE
8
Layer 1
10
631.029531
20
15.214964
11
630.961290
21
14.558456
0
LINE
8
Layer 1
10
630.961290
20
14.558456
11
631.194543
21
14.138550
0
LINE
8
Layer 1
10
631.194543
20
14.138550
11
631.770298
21
13.923036
0
LINE
8
Layer 1
10
631.770298
20
13.923036
11
632.729568
21
13.879700
0
LINE
8
Layer 1
10
632.729568
20
13.879700
11
633.478833
21
13.807357
0
LINE
8
Layer 1
10
633.478833
20
13.807357
11
634.285104
21
13.572088
0
LINE
8
Layer 1
10
634.285104
20
13.572088
11
635.885652
21
12.736699
0
LINE
8
Layer 1
10
635.885652
20
12.736699
11
637.165195
21
11.621380
0
LINE
8
Layer 1
10
637.165195
20
11.621380
11
637.570208
21
11.036200
0
LINE
8
Layer 1
10
637.570208
20
11.036200
11
637.757713
21
10.473981
0
LINE
8
Layer 1
10
637.757713
20
10.473981
11
637.915162
21
9.810361
0
LINE
8
Layer 1
10
637.915162
20
9.810361
11
638.150531
21
9.557640
0
LINE
8
Layer 1
10
638.150531
20
9.557640
11
638.414740
21
9.724283
0
LINE
8
Layer 1
10
638.414740
20
9.724283
11
638.658708
21
10.318759
0
LINE
8
Layer 1
10
638.658708
20
10.318759
11
638.849120
21
11.408666
0
LINE
8
Layer 1
10
638.849120
20
11.408666
11
638.725581
21
11.600566
0
LINE
8
Layer 1
10
638.725581
20
11.600566
11
638.439985
21
11.656140
0
LINE
8
Layer 1
10
638.439985
20
11.656140
11
637.769840
21
11.972846
0
LINE
8
Layer 1
10
637.769840
20
11.972846
11
636.777696
21
12.714474
0
LINE
8
Layer 1
10
636.777696
20
12.714474
11
635.556378
21
13.758344
0
LINE
8
Layer 1
10
635.556378
20
13.758344
11
636.689501
21
13.817258
0
LINE
8
Layer 1
10
636.689501
20
13.817258
11
638.439985
21
13.905452
0
LINE
8
Layer 1
10
638.439985
20
13.905452
11
638.877915
21
13.762313
0
LINE
8
Layer 1
10
638.877915
20
13.762313
11
638.939872
21
13.257752
0
LINE
8
Layer 1
10
638.939872
20
13.257752
11
638.978264
21
12.234872
0
LINE
8
Layer 1
10
638.978264
20
12.234872
11
639.277436
21
11.000590
0
LINE
8
Layer 1
10
639.277436
20
11.000590
11
639.706982
21
9.961703
0
LINE
8
Layer 1
10
639.706982
20
9.961703
11
640.136495
21
9.525008
0
LINE
8
Layer 1
10
640.136495
20
9.525008
11
640.675170
21
9.693195
0
LINE
8
Layer 1
10
640.675170
20
9.693195
11
641.153951
21
10.106651
0
LINE
8
Layer 1
10
641.153951
20
10.106651
11
641.458437
21
10.628718
0
LINE
8
Layer 1
10
641.458437
20
10.628718
11
641.474229
21
11.122740
0
LINE
8
Layer 1
10
641.474229
20
11.122740
11
641.189052
21
11.489232
0
LINE
8
Layer 1
10
641.189052
20
11.489232
11
640.783490
21
11.641676
0
LINE
8
Layer 1
10
640.783490
20
11.641676
11
640.566063
21
11.722831
0
LINE
8
Layer 1
10
640.566063
20
11.722831
11
640.412764
21
11.969186
0
LINE
8
Layer 1
10
640.412764
20
11.969186
11
640.292070
21
12.974824
0
LINE
8
Layer 1
10
640.292070
20
12.974824
11
640.292070
21
14.307619
0
LINE
8
Layer 1
10
640.292070
20
14.307619
11
642.673321
21
14.724956
0
LINE
8
Layer 1
10
642.673321
20
14.724956
11
646.043465
21
15.355183
0
LINE
8
Layer 1
10
646.043465
20
15.355183
11
648.176217
21
15.902529
0
LINE
8
Layer 1
10
648.176217
20
15.902529
11
649.585995
21
16.538775
0
LINE
8
Layer 1
10
649.585995
20
16.538775
11
650.787216
21
17.435702
0
LINE
8
Layer 1
10
650.787216
20
17.435702
11
651.336122
21
18.205508
0
LINE
8
Layer 1
10
651.336122
20
18.205508
11
651.572720
21
19.172163
0
LINE
8
Layer 1
10
651.572720
20
19.172163
11
651.480507
21
20.116991
0
LINE
8
Layer 1
10
651.480507
20
20.116991
11
651.042980
21
20.821312
0
LINE
8
Layer 1
10
651.042980
20
20.821312
11
650.139631
21
21.158243
0
LINE
8
Layer 1
10
650.139631
20
21.158243
11
648.705958
21
21.385537
0
LINE
8
Layer 1
10
648.705958
20
21.385537
11
647.310318
21
21.445547
0
LINE
8
Layer 1
10
647.310318
20
21.445547
11
646.521071
21
21.280629
0
LINE
8
Layer 1
10
650.313787
20
19.724878
11
650.428220
21
19.373423
0
LINE
8
Layer 1
10
650.428220
20
19.373423
11
650.214304
21
18.927247
0
LINE
8
Layer 1
10
650.214304
20
18.927247
11
649.463978
21
18.382409
0
LINE
8
Layer 1
10
649.463978
20
18.382409
11
648.178334
21
17.736666
0
LINE
8
Layer 1
10
648.178334
20
17.736666
11
646.703645
21
17.145228
0
LINE
8
Layer 1
10
646.703645
20
17.145228
11
645.386184
21
16.763307
0
LINE
8
Layer 1
10
645.386184
20
16.763307
11
638.816047
21
15.678515
0
LINE
8
Layer 1
10
638.816047
20
15.678515
11
637.877112
21
15.600457
0
LINE
8
Layer 1
10
637.877112
20
15.600457
11
637.396600
21
15.658627
0
LINE
8
Layer 1
10
637.396600
20
15.658627
11
637.238021
21
15.921650
0
LINE
8
Layer 1
10
637.238021
20
15.921650
11
637.264882
21
16.458154
0
LINE
8
Layer 1
10
637.264882
20
16.458154
11
637.452665
21
17.105502
0
LINE
8
Layer 1
10
637.452665
20
17.105502
11
638.271049
21
17.633258
0
LINE
8
Layer 1
10
638.271049
20
17.633258
11
640.357384
21
18.304418
0
LINE
8
Layer 1
10
640.357384
20
18.304418
11
644.349017
21
19.381978
0
LINE
8
Layer 1
10
644.349017
20
19.381978
11
646.700040
21
19.940580
0
LINE
8
Layer 1
10
646.700040
20
19.940580
11
648.398732
21
20.179433
0
LINE
8
Layer 1
10
648.398732
20
20.179433
11
649.563759
21
20.105283
0
LINE
8
Layer 1
10
649.563759
20
20.105283
11
650.313787
21
19.724878
0
LINE
8
Layer 1
10
261.643801
20
23.048047
11
261.477598
21
22.592037
0
LINE
8
Layer 1
10
261.477598
20
22.592037
11
261.408498
21
21.825671
0
LINE
8
Layer 1
10
261.408498
20
21.825671
11
261.611580
21
20.932345
0
LINE
8
Layer 1
10
261.611580
20
20.932345
11
262.193760
21
20.009625
0
LINE
8
Layer 1
10
262.193760
20
20.009625
11
263.114441
21
19.083945
0
LINE
8
Layer 1
10
263.114441
20
19.083945
11
264.333028
21
18.181739
0
LINE
8
Layer 1
10
264.333028
20
18.181739
11
265.808921
21
17.329440
0
LINE
8
Layer 1
10
265.808921
20
17.329440
11
267.501525
21
16.553481
0
LINE
8
Layer 1
10
267.501525
20
16.553481
11
269.370243
21
15.880297
0
LINE
8
Layer 1
10
269.370243
20
15.880297
11
271.374476
21
15.336320
0
LINE
8
Layer 1
10
271.374476
20
15.336320
11
272.912522
21
14.963599
0
LINE
8
Layer 1
10
272.912522
20
14.963599
11
273.728917
21
14.656958
0
LINE
8
Layer 1
10
273.728917
20
14.656958
11
274.051598
21
14.279540
0
LINE
8
Layer 1
10
274.051598
20
14.279540
11
274.108506
21
13.694491
0
LINE
8
Layer 1
10
274.108506
20
13.694491
11
273.956767
21
12.911148
0
LINE
8
Layer 1
10
273.956767
20
12.911148
11
273.579339
21
12.474938
0
LINE
8
Layer 1
10
273.579339
20
12.474938
11
273.190947
21
12.193228
0
LINE
8
Layer 1
10
273.190947
20
12.193228
11
273.068296
21
11.813788
0
LINE
8
Layer 1
10
273.068296
20
11.813788
11
273.209104
21
11.433487
0
LINE
8
Layer 1
10
273.209104
20
11.433487
11
273.611089
21
11.149198
0
LINE
8
Layer 1
10
273.611089
20
11.149198
11
274.178714
21
11.041149
0
LINE
8
Layer 1
10
274.178714
20
11.041149
11
274.550052
21
11.260852
0
LINE
8
Layer 1
10
274.550052
20
11.260852
11
274.752651
21
11.847004
0
LINE
8
Layer 1
10
274.752651
20
11.847004
11
274.814062
21
12.838299
0
LINE
8
Layer 1
10
274.814062
20
12.838299
11
274.993273
21
14.525636
0
LINE
8
Layer 1
10
274.993273
20
14.525636
11
275.499025
21
14.590459
0
LINE
8
Layer 1
10
275.499025
20
14.590459
11
276.463299
21
14.494944
0
LINE
8
Layer 1
10
276.463299
20
14.494944
11
277.754467
21
14.285042
0
LINE
8
Layer 1
10
277.754467
20
14.285042
11
276.460477
21
13.298321
0
LINE
8
Layer 1
10
276.460477
20
13.298321
11
275.689850
21
12.568325
0
LINE
8
Layer 1
10
275.689850
20
12.568325
11
275.250316
21
11.847257
0
LINE
8
Layer 1
10
275.250316
20
11.847257
11
275.174651
21
11.220779
0
LINE
8
Layer 1
10
275.174651
20
11.220779
11
275.495629
21
10.774548
0
LINE
8
Layer 1
10
275.495629
20
10.774548
11
275.760830
21
10.907545
0
LINE
8
Layer 1
10
275.760830
20
10.907545
11
275.936602
21
11.512559
0
LINE
8
Layer 1
10
275.936602
20
11.512559
11
276.314317
21
12.379781
0
LINE
8
Layer 1
10
276.314317
20
12.379781
11
277.040091
21
13.183801
0
LINE
8
Layer 1
10
277.040091
20
13.183801
11
277.791001
21
13.647500
0
LINE
8
Layer 1
10
277.791001
20
13.647500
11
278.074968
21
13.665130
0
LINE
8
Layer 1
10
278.074968
20
13.665130
11
278.244122
21
13.493761
0
LINE
8
Layer 1
10
278.244122
20
13.493761
11
278.455966
21
13.142989
0
LINE
8
Layer 1
10
278.455966
20
13.142989
11
278.707496
21
13.078894
0
LINE
8
Layer 1
10
278.707496
20
13.078894
11
278.953735
21
13.288378
0
LINE
8
Layer 1
10
278.953735
20
13.288378
11
279.149704
21
13.758344
0
LINE
8
Layer 1
10
279.149704
20
13.758344
11
279.529866
21
14.298844
0
LINE
8
Layer 1
10
279.529866
20
14.298844
11
280.354793
21
14.463900
0
LINE
8
Layer 1
10
280.354793
20
14.463900
11
281.092350
21
14.545616
0
LINE
8
Layer 1
10
281.092350
20
14.545616
11
281.652355
21
14.768116
0
LINE
8
Layer 1
10
281.652355
20
14.768116
11
282.027945
21
15.097425
0
LINE
8
Layer 1
10
282.027945
20
15.097425
11
282.212258
21
15.499568
0
LINE
8
Layer 1
10
282.212258
20
15.499568
11
282.198430
21
15.940572
0
LINE
8
Layer 1
10
282.198430
20
15.940572
11
281.979601
21
16.386463
0
LINE
8
Layer 1
10
281.979601
20
16.386463
11
281.548905
21
16.803266
0
LINE
8
Layer 1
10
281.548905
20
16.803266
11
280.899482
21
17.157007
0
LINE
8
Layer 1
10
280.899482
20
17.157007
11
277.730125
21
18.557536
0
LINE
8
Layer 1
10
277.730125
20
18.557536
11
274.819706
21
19.631039
0
LINE
8
Layer 1
10
274.819706
20
19.631039
11
274.068245
21
19.872031
0
LINE
8
Layer 1
10
274.068245
20
19.872031
11
273.755728
21
20.152445
0
LINE
8
Layer 1
10
273.755728
20
20.152445
11
273.565933
21
20.370418
0
LINE
8
Layer 1
10
273.565933
20
20.370418
11
273.109439
21
20.461126
0
LINE
8
Layer 1
10
273.109439
20
20.461126
11
271.239407
21
20.857516
0
LINE
8
Layer 1
10
271.239407
20
20.857516
11
267.137613
21
22.068030
0
LINE
8
Layer 1
10
267.137613
20
22.068030
11
266.608446
21
22.205613
0
LINE
8
Layer 1
10
266.608446
20
22.205613
11
264.759889
21
22.740777
0
LINE
8
Layer 1
10
264.759889
20
22.740777
11
262.612353
21
23.249086
0
LINE
8
Layer 1
10
262.612353
20
23.249086
11
262.010833
21
23.234242
0
LINE
8
Layer 1
10
262.010833
20
23.234242
11
261.643801
21
23.048047
0
LINE
8
Layer 1
10
266.876557
20
20.683376
11
273.897368
21
18.469430
0
LINE
8
Layer 1
10
273.897368
20
18.469430
11
275.978692
21
17.633886
0
LINE
8
Layer 1
10
275.978692
20
17.633886
11
276.494644
21
17.344598
0
LINE
8
Layer 1
10
276.494644
20
17.344598
11
276.597002
21
17.164063
0
LINE
8
Layer 1
10
276.597002
20
17.164063
11
276.437105
21
16.743948
0
LINE
8
Layer 1
10
276.437105
20
16.743948
11
276.606880
21
16.173815
0
LINE
8
Layer 1
10
276.606880
20
16.173815
11
276.777961
21
15.709708
0
LINE
8
Layer 1
10
276.777961
20
15.709708
11
276.397021
21
15.560819
0
LINE
8
Layer 1
10
276.397021
20
15.560819
11
272.595441
21
16.227084
0
LINE
8
Layer 1
10
272.595441
20
16.227084
11
269.598239
21
16.993230
0
LINE
8
Layer 1
10
269.598239
20
16.993230
11
267.242388
21
17.855155
0
LINE
8
Layer 1
10
267.242388
20
17.855155
11
265.734262
21
18.699270
0
LINE
8
Layer 1
10
265.734262
20
18.699270
11
264.304717
21
19.668037
0
LINE
8
Layer 1
10
264.304717
20
19.668037
11
263.238313
21
20.550484
0
LINE
8
Layer 1
10
263.238313
20
20.550484
11
262.819610
21
21.135638
0
LINE
8
Layer 1
10
262.819610
20
21.135638
11
263.119141
21
21.329886
0
LINE
8
Layer 1
10
263.119141
20
21.329886
11
263.956437
21
21.312468
0
LINE
8
Layer 1
10
263.956437
20
21.312468
11
266.876557
21
20.683376
0
LINE
8
Layer 1
10
526.521165
20
22.029224
11
521.758662
21
20.959249
0
LINE
8
Layer 1
10
521.758662
20
20.959249
11
516.026108
21
19.537377
0
LINE
8
Layer 1
10
516.026108
20
19.537377
11
510.469766
21
17.915480
0
LINE
8
Layer 1
10
510.469766
20
17.915480
11
508.928788
21
17.321446
0
LINE
8
Layer 1
10
508.928788
20
17.321446
11
507.698695
21
16.660208
0
LINE
8
Layer 1
10
507.698695
20
16.660208
11
506.883998
21
15.999366
0
LINE
8
Layer 1
10
506.883998
20
15.999366
11
506.589208
21
15.406523
0
LINE
8
Layer 1
10
506.589208
20
15.406523
11
507.107351
21
14.614801
0
LINE
8
Layer 1
10
507.107351
20
14.614801
11
508.353098
21
13.196016
0
LINE
8
Layer 1
10
508.353098
20
13.196016
11
509.598845
21
11.717391
0
LINE
8
Layer 1
10
509.598845
20
11.717391
11
510.116988
21
10.780898
0
LINE
8
Layer 1
10
510.116988
20
10.780898
11
510.185835
21
10.412250
0
LINE
8
Layer 1
10
510.185835
20
10.412250
11
510.430960
21
10.260065
0
LINE
8
Layer 1
10
510.430960
20
10.260065
11
511.681558
21
10.574523
0
LINE
8
Layer 1
10
511.681558
20
10.574523
11
512.270461
21
10.951019
0
LINE
8
Layer 1
10
512.270461
20
10.951019
11
512.561607
21
11.421939
0
LINE
8
Layer 1
10
512.561607
20
11.421939
11
512.510184
21
11.824134
0
LINE
8
Layer 1
10
512.510184
20
11.824134
11
512.071378
21
11.994454
0
LINE
8
Layer 1
10
512.071378
20
11.994454
11
511.498356
21
12.267278
0
LINE
8
Layer 1
10
511.498356
20
12.267278
11
510.728881
21
12.903078
0
LINE
8
Layer 1
10
510.728881
20
12.903078
11
510.053863
21
13.627844
0
LINE
8
Layer 1
10
510.053863
20
13.627844
11
509.764210
21
14.167566
0
LINE
8
Layer 1
10
509.764210
20
14.167566
11
510.101069
21
14.401326
0
LINE
8
Layer 1
10
510.101069
20
14.401326
11
510.910738
21
14.625825
0
LINE
8
Layer 1
10
510.910738
20
14.625825
11
513.469790
21
15.204734
0
LINE
8
Layer 1
10
513.469790
20
15.204734
11
514.881828
21
15.371686
0
LINE
8
Layer 1
10
514.881828
20
15.371686
11
516.292014
21
14.926392
0
LINE
8
Layer 1
10
516.292014
20
14.926392
11
517.287642
21
14.322260
0
LINE
8
Layer 1
10
517.287642
20
14.322260
11
517.701715
21
13.766811
0
LINE
8
Layer 1
10
517.701715
20
13.766811
11
517.760838
21
13.636966
0
LINE
8
Layer 1
10
517.760838
20
13.636966
11
517.925200
21
13.690611
0
LINE
8
Layer 1
10
517.925200
20
13.690611
11
518.491585
21
14.295978
0
LINE
8
Layer 1
10
518.491585
20
14.295978
11
519.638113
21
15.772001
0
LINE
8
Layer 1
10
519.638113
20
15.772001
11
519.994772
21
16.676171
0
LINE
8
Layer 1
10
519.994772
20
16.676171
11
520.192195
21
16.939580
0
LINE
8
Layer 1
10
520.192195
20
16.939580
11
520.734371
21
17.298074
0
LINE
8
Layer 1
10
520.734371
20
17.298074
11
522.552412
21
18.129263
0
LINE
8
Layer 1
10
522.552412
20
18.129263
11
526.221656
21
19.606345
0
LINE
8
Layer 1
10
526.221656
20
19.606345
11
527.555863
21
20.108348
0
LINE
8
Layer 1
10
527.555863
20
20.108348
11
529.019892
21
20.626932
0
LINE
8
Layer 1
10
529.019892
20
20.626932
11
529.985754
21
21.179206
0
LINE
8
Layer 1
10
529.985754
20
21.179206
11
530.040307
21
21.467017
0
LINE
8
Layer 1
10
530.040307
20
21.467017
11
529.878200
21
21.861655
0
LINE
8
Layer 1
10
529.878200
20
21.861655
11
529.567976
21
22.327129
0
LINE
8
Layer 1
10
529.567976
20
22.327129
11
529.101119
21
22.500403
0
LINE
8
Layer 1
10
529.101119
20
22.500403
11
526.521165
21
22.029224
0
LINE
8
Layer 1
10
522.287829
20
19.270147
11
518.812040
21
17.970618
0
LINE
8
Layer 1
10
518.812040
20
17.970618
11
514.763956
21
16.725692
0
LINE
8
Layer 1
10
514.763956
20
16.725692
11
511.199531
21
15.832067
0
LINE
8
Layer 1
10
511.199531
20
15.832067
11
509.174718
21
15.586440
0
LINE
8
Layer 1
10
509.174718
20
15.586440
11
509.139919
21
15.674518
0
LINE
8
Layer 1
10
509.139919
20
15.674518
11
509.394537
21
15.847424
0
LINE
8
Layer 1
10
509.394537
20
15.847424
11
510.557564
21
16.363301
0
LINE
8
Layer 1
10
510.557564
20
16.363301
11
513.997546
21
17.484385
0
LINE
8
Layer 1
10
513.997546
20
17.484385
11
515.761436
21
17.962399
0
LINE
8
Layer 1
10
515.761436
20
17.962399
11
520.810748
21
19.332545
0
LINE
8
Layer 1
10
520.810748
20
19.332545
11
522.640607
21
19.697009
0
LINE
8
Layer 1
10
522.640607
20
19.697009
11
522.928430
21
19.612298
0
LINE
8
Layer 1
10
522.928430
20
19.612298
11
522.287829
21
19.270147
0
LINE
8
Layer 1
10
218.382282
20
22.416927
11
218.148214
21
21.945748
0
LINE
8
Layer 1
10
218.148214
20
21.945748
11
218.184021
21
21.534629
0
LINE
8
Layer 1
10
218.184021
20
21.534629
11
219.467284
21
20.690840
0
LINE
8
Layer 1
10
219.467284
20
20.690840
11
222.194842
21
19.387270
0
LINE
8
Layer 1
10
222.194842
20
19.387270
11
225.614418
21
17.958287
0
LINE
8
Layer 1
10
225.614418
20
17.958287
11
228.973736
21
16.738260
0
LINE
8
Layer 1
10
228.973736
20
16.738260
11
232.305151
21
15.491586
0
LINE
8
Layer 1
10
232.305151
20
15.491586
11
233.311830
21
14.947112
0
LINE
8
Layer 1
10
233.311830
20
14.947112
11
233.980008
21
14.408161
0
LINE
8
Layer 1
10
233.980008
20
14.408161
11
234.642509
21
13.582506
0
LINE
8
Layer 1
10
234.642509
20
13.582506
11
234.911739
21
12.930021
0
LINE
8
Layer 1
10
234.911739
20
12.930021
11
234.781250
21
12.501374
0
LINE
8
Layer 1
10
234.781250
20
12.501374
11
234.244592
21
12.347232
0
LINE
8
Layer 1
10
234.244592
20
12.347232
11
233.789657
21
12.207675
0
LINE
8
Layer 1
10
233.789657
20
12.207675
11
233.561041
21
11.871070
0
LINE
8
Layer 1
10
233.561041
20
11.871070
11
233.591385
21
11.460513
0
LINE
8
Layer 1
10
233.591385
20
11.460513
11
233.913333
21
11.099103
0
LINE
8
Layer 1
10
233.913333
20
11.099103
11
235.324445
21
10.704345
0
LINE
8
Layer 1
10
235.324445
20
10.704345
11
236.157310
21
10.704124
0
LINE
8
Layer 1
10
236.157310
20
10.704124
11
236.317179
21
10.882393
0
LINE
8
Layer 1
10
236.317179
20
10.882393
11
236.361260
21
11.206348
0
LINE
8
Layer 1
10
236.361260
20
11.206348
11
236.467282
21
11.692854
0
LINE
8
Layer 1
10
236.467282
20
11.692854
11
236.762352
21
12.191684
0
LINE
8
Layer 1
10
236.762352
20
12.191684
11
237.781677
21
13.131149
0
LINE
8
Layer 1
10
237.781677
20
13.131149
11
239.143306
21
13.834406
0
LINE
8
Layer 1
10
239.143306
20
13.834406
11
240.571313
21
14.111122
0
LINE
8
Layer 1
10
240.571313
20
14.111122
11
241.335165
21
14.219116
0
LINE
8
Layer 1
10
241.335165
20
14.219116
11
241.652930
21
14.478717
0
LINE
8
Layer 1
10
241.652930
20
14.478717
11
241.468174
21
14.951715
0
LINE
8
Layer 1
10
241.468174
20
14.951715
11
240.969158
21
15.530612
0
LINE
8
Layer 1
10
240.969158
20
15.530612
11
239.359873
21
16.686754
0
LINE
8
Layer 1
10
239.359873
20
16.686754
11
234.115828
21
18.537031
0
LINE
8
Layer 1
10
234.115828
20
18.537031
11
226.130698
21
20.959601
0
LINE
8
Layer 1
10
226.130698
20
20.959601
11
221.772126
21
22.214433
0
LINE
8
Layer 1
10
221.772126
20
22.214433
11
219.197596
21
22.879772
0
LINE
8
Layer 1
10
219.197596
20
22.879772
11
218.733798
21
22.779583
0
LINE
8
Layer 1
10
218.733798
20
22.779583
11
218.382282
21
22.416927
0
LINE
8
Layer 1
10
225.853767
20
19.614812
11
230.099803
21
18.328583
0
LINE
8
Layer 1
10
230.099803
20
18.328583
11
232.166685
21
17.613149
0
LINE
8
Layer 1
10
232.166685
20
17.613149
11
232.509878
21
17.347805
0
LINE
8
Layer 1
10
232.509878
20
17.347805
11
232.474352
21
17.101974
0
LINE
8
Layer 1
10
232.474352
20
17.101974
11
231.992204
21
16.914979
0
LINE
8
Layer 1
10
231.992204
20
16.914979
11
231.100017
21
17.024980
0
LINE
8
Layer 1
10
231.100017
20
17.024980
11
228.070977
21
18.139141
0
LINE
8
Layer 1
10
228.070977
20
18.139141
11
225.336947
21
19.229578
0
LINE
8
Layer 1
10
225.336947
20
19.229578
11
223.961665
21
19.813398
0
LINE
8
Layer 1
10
223.961665
20
19.813398
11
223.634000
21
20.105482
0
LINE
8
Layer 1
10
223.634000
20
20.105482
11
224.287014
21
20.055922
0
LINE
8
Layer 1
10
224.287014
20
20.055922
11
225.853767
21
19.614812
0
LINE
8
Layer 1
10
237.427355
20
13.462716
11
236.664489
21
12.946585
0
LINE
8
Layer 1
10
236.664489
20
12.946585
11
236.248062
21
12.807651
0
LINE
8
Layer 1
10
236.248062
20
12.807651
11
236.125654
21
13.056663
0
LINE
8
Layer 1
10
236.125654
20
13.056663
11
236.244843
21
13.704369
0
LINE
8
Layer 1
10
236.244843
20
13.704369
11
236.393710
21
14.093180
0
LINE
8
Layer 1
10
236.393710
20
14.093180
11
236.621390
21
14.320628
0
LINE
8
Layer 1
10
236.621390
20
14.320628
11
237.501438
21
14.394756
0
LINE
8
Layer 1
10
237.501438
20
14.394756
11
238.549189
21
14.287511
0
LINE
8
Layer 1
10
238.549189
20
14.287511
11
237.427355
21
13.462716
0
LINE
8
Layer 1
10
135.675597
20
21.653516
11
135.635683
21
21.046192
0
LINE
8
Layer 1
10
135.635683
20
21.046192
11
136.169618
21
20.470783
0
LINE
8
Layer 1
10
136.169618
20
20.470783
11
137.486390
21
19.784977
0
LINE
8
Layer 1
10
137.486390
20
19.784977
11
139.794985
21
18.846461
0
LINE
8
Layer 1
10
139.794985
20
18.846461
11
142.134565
21
17.822832
0
LINE
8
Layer 1
10
142.134565
20
17.822832
11
142.730523
21
17.461515
0
LINE
8
Layer 1
10
142.730523
20
17.461515
11
142.831346
21
17.259313
0
LINE
8
Layer 1
10
142.831346
20
17.259313
11
142.729569
21
17.019413
0
LINE
8
Layer 1
10
142.729569
20
17.019413
11
142.852159
21
16.551640
0
LINE
8
Layer 1
10
142.852159
20
16.551640
11
143.794782
21
14.872417
0
LINE
8
Layer 1
10
143.794782
20
14.872417
11
145.329455
21
12.853468
0
LINE
8
Layer 1
10
145.329455
20
12.853468
11
145.679146
21
12.661623
0
LINE
8
Layer 1
10
145.679146
20
12.661623
11
145.595714
21
13.161796
0
LINE
8
Layer 1
10
145.595714
20
13.161796
11
145.647578
21
13.411999
0
LINE
8
Layer 1
10
145.647578
20
13.411999
11
145.971996
21
13.707412
0
LINE
8
Layer 1
10
145.971996
20
13.707412
11
147.410051
21
14.414158
0
LINE
8
Layer 1
10
147.410051
20
14.414158
11
148.602650
21
14.854387
0
LINE
8
Layer 1
10
148.602650
20
14.854387
11
149.554677
21
15.027154
0
LINE
8
Layer 1
10
149.554677
20
15.027154
11
150.719296
21
14.953661
0
LINE
8
Layer 1
10
150.719296
20
14.953661
11
152.549674
21
14.655106
0
LINE
8
Layer 1
10
152.549674
20
14.655106
11
155.827687
21
13.976008
0
LINE
8
Layer 1
10
155.827687
20
13.976008
11
155.602692
21
13.554025
0
LINE
8
Layer 1
10
155.602692
20
13.554025
11
154.800574
21
12.885351
0
LINE
8
Layer 1
10
154.800574
20
12.885351
11
153.829916
21
12.266617
0
LINE
8
Layer 1
10
153.829916
20
12.266617
11
153.099302
21
11.994454
0
LINE
8
Layer 1
10
153.099302
20
11.994454
11
152.626233
21
11.926878
0
LINE
8
Layer 1
10
152.626233
20
11.926878
11
152.326172
21
11.746479
0
LINE
8
Layer 1
10
152.326172
20
11.746479
11
152.189534
21
11.486745
0
LINE
8
Layer 1
10
152.189534
20
11.486745
11
152.206730
21
11.181168
0
LINE
8
Layer 1
10
152.206730
20
11.181168
11
152.664277
21
10.566447
0
LINE
8
Layer 1
10
152.664277
20
10.566447
11
153.622119
21
10.170239
0
LINE
8
Layer 1
10
153.622119
20
10.170239
11
153.970283
21
10.182531
0
LINE
8
Layer 1
10
153.970283
20
10.182531
11
154.284416
21
10.352978
0
LINE
8
Layer 1
10
154.284416
20
10.352978
11
154.876598
21
11.223634
0
LINE
8
Layer 1
10
154.876598
20
11.223634
11
155.655928
21
12.400105
0
LINE
8
Layer 1
10
155.655928
20
12.400105
11
156.741382
21
13.586894
0
LINE
8
Layer 1
10
156.741382
20
13.586894
11
157.661780
21
14.536572
0
LINE
8
Layer 1
10
157.661780
20
14.536572
11
158.044544
21
15.143350
0
LINE
8
Layer 1
10
158.044544
20
15.143350
11
157.953437
21
15.481713
0
LINE
8
Layer 1
10
157.953437
20
15.481713
11
157.645558
21
15.817520
0
LINE
8
Layer 1
10
157.645558
20
15.817520
11
156.172131
21
16.561871
0
LINE
8
Layer 1
10
156.172131
20
16.561871
11
153.209562
21
17.537203
0
LINE
8
Layer 1
10
153.209562
20
17.537203
11
148.343149
21
18.904317
0
LINE
8
Layer 1
10
148.343149
20
18.904317
11
143.933424
21
20.103409
0
LINE
8
Layer 1
10
143.933424
20
20.103409
11
139.857780
21
21.140929
0
LINE
8
Layer 1
10
139.857780
20
21.140929
11
136.463703
21
22.053213
0
LINE
8
Layer 1
10
136.463703
20
22.053213
11
135.996360
21
22.043203
0
LINE
8
Layer 1
10
135.996360
20
22.043203
11
135.675597
21
21.653516
0
LINE
8
Layer 1
10
147.133826
20
18.204758
11
150.812595
21
17.118202
0
LINE
8
Layer 1
10
150.812595
20
17.118202
11
153.770683
21
16.196790
0
LINE
8
Layer 1
10
153.770683
20
16.196790
11
154.574129
21
15.869483
0
LINE
8
Layer 1
10
154.574129
20
15.869483
11
154.792284
21
15.679926
0
LINE
8
Layer 1
10
154.792284
20
15.679926
11
152.752521
21
16.100790
0
LINE
8
Layer 1
10
152.752521
20
16.100790
11
150.283428
21
16.762601
0
LINE
8
Layer 1
10
150.283428
20
16.762601
11
145.344536
21
18.283427
0
LINE
8
Layer 1
10
145.344536
20
18.283427
11
144.814090
21
18.583774
0
LINE
8
Layer 1
10
144.814090
20
18.583774
11
145.065224
21
18.665045
0
LINE
8
Layer 1
10
145.065224
20
18.665045
11
147.133826
21
18.204758
0
LINE
8
Layer 1
10
608.894828
20
21.606243
11
606.601771
21
21.000876
0
LINE
8
Layer 1
10
606.601771
20
21.000876
11
603.073991
21
19.928431
0
LINE
8
Layer 1
10
603.073991
20
19.928431
11
594.097511
21
17.242732
0
LINE
8
Layer 1
10
594.097511
20
17.242732
11
591.477147
21
16.313890
0
LINE
8
Layer 1
10
591.477147
20
16.313890
11
590.197594
21
15.692626
0
LINE
8
Layer 1
10
590.197594
20
15.692626
11
589.028840
21
15.049159
0
LINE
8
Layer 1
10
589.028840
20
15.049159
11
588.637213
21
14.782784
0
LINE
8
Layer 1
10
588.637213
20
14.782784
11
588.625792
21
14.473645
0
LINE
8
Layer 1
10
588.625792
20
14.473645
11
588.942719
21
14.217755
0
LINE
8
Layer 1
10
588.942719
20
14.217755
11
589.536135
21
14.111122
0
LINE
8
Layer 1
10
589.536135
20
14.111122
11
590.262285
21
13.995058
0
LINE
8
Layer 1
10
590.262285
20
13.995058
11
591.014628
21
13.716011
0
LINE
8
Layer 1
10
591.014628
20
13.716011
11
591.971340
21
13.072891
0
LINE
8
Layer 1
10
591.971340
20
13.072891
11
592.971311
21
12.183940
0
LINE
8
Layer 1
10
592.971311
20
12.183940
11
593.758822
21
11.302463
0
LINE
8
Layer 1
10
593.758822
20
11.302463
11
594.078152
21
10.681767
0
LINE
8
Layer 1
10
594.078152
20
10.681767
11
594.343926
21
10.249702
0
LINE
8
Layer 1
10
594.343926
20
10.249702
11
594.983028
21
9.868967
0
LINE
8
Layer 1
10
594.983028
20
9.868967
11
595.772231
21
9.715244
0
LINE
8
Layer 1
10
595.772231
20
9.715244
11
596.471971
21
9.852827
0
LINE
8
Layer 1
10
596.471971
20
9.852827
11
597.017261
21
10.253539
0
LINE
8
Layer 1
10
597.017261
20
10.253539
11
597.343112
21
10.889201
0
LINE
8
Layer 1
10
597.343112
20
10.889201
11
597.382254
21
11.225663
0
LINE
8
Layer 1
10
597.382254
20
11.225663
11
597.279480
21
11.466875
0
LINE
8
Layer 1
10
597.279480
20
11.466875
11
596.558887
21
11.763032
0
LINE
8
Layer 1
10
596.558887
20
11.763032
11
595.695683
21
12.245037
0
LINE
8
Layer 1
10
595.695683
20
12.245037
11
594.994405
21
13.094416
0
LINE
8
Layer 1
10
594.994405
20
13.094416
11
594.679286
21
13.937710
0
LINE
8
Layer 1
10
594.679286
20
13.937710
11
594.736609
21
14.240368
0
LINE
8
Layer 1
10
594.736609
20
14.240368
11
594.974561
21
14.401458
0
LINE
8
Layer 1
10
594.974561
20
14.401458
11
595.340789
21
14.313572
0
LINE
8
Layer 1
10
595.340789
20
14.313572
11
595.489264
21
13.929089
0
LINE
8
Layer 1
10
595.489264
20
13.929089
11
595.532782
21
13.671858
0
LINE
8
Layer 1
10
595.532782
20
13.671858
11
595.693214
21
13.627816
0
LINE
8
Layer 1
10
595.693214
20
13.627816
11
596.544070
21
14.230361
0
LINE
8
Layer 1
10
596.544070
20
14.230361
11
597.849966
21
14.973929
0
LINE
8
Layer 1
10
597.849966
20
14.973929
11
599.509875
21
15.514826
0
LINE
8
Layer 1
10
599.509875
20
15.514826
11
602.538397
21
16.360341
0
LINE
8
Layer 1
10
602.538397
20
16.360341
11
605.725470
21
17.580738
0
LINE
8
Layer 1
10
605.725470
20
17.580738
11
608.453756
21
18.909945
0
LINE
8
Layer 1
10
608.453756
20
18.909945
11
610.105915
21
20.081890
0
LINE
8
Layer 1
10
610.105915
20
20.081890
11
610.577888
21
20.782022
0
LINE
8
Layer 1
10
610.577888
20
20.782022
11
610.521195
21
21.025411
0
LINE
8
Layer 1
10
610.521195
20
21.025411
11
610.282304
21
21.285568
0
LINE
8
Layer 1
10
610.282304
20
21.285568
11
609.666221
21
21.565233
0
LINE
8
Layer 1
10
609.666221
20
21.565233
11
608.894828
21
21.606243
0
LINE
8
Layer 1
10
606.072604
20
19.305072
11
602.544824
21
18.044597
0
LINE
8
Layer 1
10
602.544824
20
18.044597
11
599.051616
21
16.888543
0
LINE
8
Layer 1
10
599.051616
20
16.888543
11
598.323482
21
16.724546
0
LINE
8
Layer 1
10
598.323482
20
16.724546
11
597.834532
21
16.916413
0
LINE
8
Layer 1
10
597.834532
20
16.916413
11
597.627804
21
17.177468
0
LINE
8
Layer 1
10
597.627804
20
17.177468
11
597.649676
21
17.286124
0
LINE
8
Layer 1
10
597.649676
20
17.286124
11
600.807040
21
18.192058
0
LINE
8
Layer 1
10
600.807040
20
18.192058
11
604.653378
21
19.271911
0
LINE
8
Layer 1
10
604.653378
20
19.271911
11
605.682432
21
19.600700
0
LINE
8
Layer 1
10
605.682432
20
19.600700
11
606.396101
21
19.753453
0
LINE
8
Layer 1
10
606.396101
20
19.753453
11
606.564024
21
19.630863
0
LINE
8
Layer 1
10
606.564024
20
19.630863
11
606.072604
21
19.305072
0
LINE
8
Layer 1
10
593.713027
20
13.428849
11
594.000530
21
12.829469
0
LINE
8
Layer 1
10
594.000530
20
12.829469
11
594.005921
21
12.571070
0
LINE
8
Layer 1
10
594.005921
20
12.571070
11
593.021935
21
12.981174
0
LINE
8
Layer 1
10
593.021935
20
12.981174
11
592.310453
21
13.450325
0
LINE
8
Layer 1
10
592.310453
20
13.450325
11
592.008448
21
13.806234
0
LINE
8
Layer 1
10
592.008448
20
13.806234
11
592.121375
21
14.032100
0
LINE
8
Layer 1
10
592.121375
20
14.032100
11
592.654693
21
14.111122
0
LINE
8
Layer 1
10
592.654693
20
14.111122
11
593.251329
21
13.910744
0
LINE
8
Layer 1
10
593.251329
20
13.910744
11
593.713027
21
13.428849
0
LINE
8
Layer 1
10
395.993305
20
23.042050
11
390.878024
21
21.498293
0
LINE
8
Layer 1
10
390.878024
20
21.498293
11
387.614265
21
20.299868
0
LINE
8
Layer 1
10
387.614265
20
20.299868
11
385.237721
21
18.977121
0
LINE
8
Layer 1
10
385.237721
20
18.977121
11
384.426328
21
18.300764
0
LINE
8
Layer 1
10
384.426328
20
18.300764
11
383.889745
21
17.631290
0
LINE
8
Layer 1
10
383.889745
20
17.631290
11
383.645644
21
16.981353
0
LINE
8
Layer 1
10
383.645644
20
16.981353
11
383.711692
21
16.363610
0
LINE
8
Layer 1
10
383.711692
20
16.363610
11
384.056339
21
15.967280
0
LINE
8
Layer 1
10
384.056339
20
15.967280
11
384.745375
21
15.582956
0
LINE
8
Layer 1
10
384.745375
20
15.582956
11
386.877874
21
14.972959
0
LINE
8
Layer 1
10
386.877874
20
14.972959
11
388.220525
21
14.486511
0
LINE
8
Layer 1
10
388.220525
20
14.486511
11
389.397415
21
13.645455
0
LINE
8
Layer 1
10
389.397415
20
13.645455
11
390.184837
21
12.658085
0
LINE
8
Layer 1
10
390.184837
20
12.658085
11
390.362591
21
12.174623
0
LINE
8
Layer 1
10
390.362591
20
12.174623
11
390.359088
21
11.732693
0
LINE
8
Layer 1
10
390.359088
20
11.732693
11
390.323325
21
11.170100
0
LINE
8
Layer 1
10
390.323325
20
11.170100
11
390.518543
21
10.936120
0
LINE
8
Layer 1
10
390.518543
20
10.936120
11
390.721115
21
11.018567
0
LINE
8
Layer 1
10
390.721115
20
11.018567
11
390.840938
21
11.243004
0
LINE
8
Layer 1
10
390.840938
20
11.243004
11
390.852977
21
11.980431
0
LINE
8
Layer 1
10
390.852977
20
11.980431
11
390.595934
21
12.873566
0
LINE
8
Layer 1
10
390.595934
20
12.873566
11
390.111085
21
13.647572
0
LINE
8
Layer 1
10
390.111085
20
13.647572
11
389.343792
21
14.463900
0
LINE
8
Layer 1
10
389.343792
20
14.463900
11
391.030777
21
14.463900
0
LINE
8
Layer 1
10
391.030777
20
14.463900
11
392.380285
21
14.357626
0
LINE
8
Layer 1
10
392.380285
20
14.357626
11
392.531809
21
14.170708
0
LINE
8
Layer 1
10
392.531809
20
14.170708
11
392.444711
21
13.846539
0
LINE
8
Layer 1
10
392.444711
20
13.846539
11
392.210218
21
13.013271
0
LINE
8
Layer 1
10
392.210218
20
13.013271
11
392.155477
21
12.129436
0
LINE
8
Layer 1
10
392.155477
20
12.129436
11
392.272517
21
11.399654
0
LINE
8
Layer 1
10
392.272517
20
11.399654
11
392.553367
21
11.028548
0
LINE
8
Layer 1
10
392.553367
20
11.028548
11
392.951163
21
11.099533
0
LINE
8
Layer 1
10
392.951163
20
11.099533
11
393.213194
21
11.477105
0
LINE
8
Layer 1
10
393.213194
20
11.477105
11
393.264021
21
11.954954
0
LINE
8
Layer 1
10
393.264021
20
11.954954
11
393.028206
21
12.326771
0
LINE
8
Layer 1
10
393.028206
20
12.326771
11
392.782761
21
12.723426
0
LINE
8
Layer 1
10
392.782761
20
12.723426
11
393.016211
21
13.488116
0
LINE
8
Layer 1
10
393.016211
20
13.488116
11
393.315450
21
13.978880
0
LINE
8
Layer 1
10
393.315450
20
13.978880
11
393.795366
21
14.283410
0
LINE
8
Layer 1
10
393.795366
20
14.283410
11
396.121011
21
14.639231
0
LINE
8
Layer 1
10
396.121011
20
14.639231
11
398.192347
21
14.905931
0
LINE
8
Layer 1
10
398.192347
20
14.905931
11
399.388440
21
15.194856
0
LINE
8
Layer 1
10
399.388440
20
15.194856
11
399.922640
21
15.232300
0
LINE
8
Layer 1
10
399.922640
20
15.232300
11
400.483596
21
14.920792
0
LINE
8
Layer 1
10
400.483596
20
14.920792
11
400.929656
21
14.380220
0
LINE
8
Layer 1
10
400.929656
20
14.380220
11
401.119169
21
13.730475
0
LINE
8
Layer 1
10
401.119169
20
13.730475
11
401.229903
21
13.418514
0
LINE
8
Layer 1
10
401.229903
20
13.418514
11
401.471109
21
13.818978
0
LINE
8
Layer 1
10
401.471109
20
13.818978
11
401.989473
21
15.878893
0
LINE
8
Layer 1
10
401.989473
20
15.878893
11
402.301990
21
17.160888
0
LINE
8
Layer 1
10
402.301990
20
17.160888
11
402.724309
21
18.019549
0
LINE
8
Layer 1
10
402.724309
20
18.019549
11
403.070781
21
18.611908
0
LINE
8
Layer 1
10
403.070781
20
18.611908
11
403.200560
21
19.254272
0
LINE
8
Layer 1
10
403.200560
20
19.254272
11
403.136398
21
19.737358
0
LINE
8
Layer 1
10
403.136398
20
19.737358
11
402.872476
21
19.226403
0
LINE
8
Layer 1
10
402.872476
20
19.226403
11
402.602469
21
18.762279
0
LINE
8
Layer 1
10
402.602469
20
18.762279
11
402.484067
21
19.402792
0
LINE
8
Layer 1
10
402.484067
20
19.402792
11
402.320378
21
20.813904
0
LINE
8
Layer 1
10
402.320378
20
20.813904
11
402.204314
21
21.748413
0
LINE
8
Layer 1
10
402.204314
20
21.748413
11
401.763430
21
22.250725
0
LINE
8
Layer 1
10
401.763430
20
22.250725
11
400.755808
21
22.889297
0
LINE
8
Layer 1
10
400.755808
20
22.889297
11
399.344696
21
23.624839
0
LINE
8
Layer 1
10
399.344696
20
23.624839
11
399.344696
21
22.756652
0
LINE
8
Layer 1
10
399.344696
20
22.756652
11
399.575236
21
21.973838
0
LINE
8
Layer 1
10
399.575236
20
21.973838
11
400.191010
21
21.333899
0
LINE
8
Layer 1
10
400.191010
20
21.333899
11
400.918571
21
20.628607
0
LINE
8
Layer 1
10
400.918571
20
20.628607
11
401.479708
21
19.711120
0
LINE
8
Layer 1
10
401.479708
20
19.711120
11
401.695631
21
19.097573
0
LINE
8
Layer 1
10
401.695631
20
19.097573
11
401.694462
21
18.642908
0
LINE
8
Layer 1
10
401.694462
20
18.642908
11
401.429901
21
18.188508
0
LINE
8
Layer 1
10
401.429901
20
18.188508
11
400.855644
21
17.575755
0
LINE
8
Layer 1
10
400.855644
20
17.575755
11
399.587005
21
16.694841
0
LINE
8
Layer 1
10
399.587005
20
16.694841
11
397.798161
21
16.055061
0
LINE
8
Layer 1
10
397.798161
20
16.055061
11
395.517523
21
15.663659
0
LINE
8
Layer 1
10
395.517523
20
15.663659
11
392.773500
21
15.527878
0
LINE
8
Layer 1
10
392.773500
20
15.527878
11
390.290853
21
15.673438
0
LINE
8
Layer 1
10
390.290853
20
15.673438
11
387.716560
21
16.040421
0
LINE
8
Layer 1
10
387.716560
20
16.040421
11
385.697562
21
16.510790
0
LINE
8
Layer 1
10
385.697562
20
16.510790
11
385.098467
21
16.747857
0
LINE
8
Layer 1
10
385.098467
20
16.747857
11
384.880798
21
16.966507
0
LINE
8
Layer 1
10
384.880798
20
16.966507
11
385.332872
21
17.538200
0
LINE
8
Layer 1
10
385.332872
20
17.538200
11
386.527301
21
18.304197
0
LINE
8
Layer 1
10
386.527301
20
18.304197
11
388.221396
21
19.130717
0
LINE
8
Layer 1
10
388.221396
20
19.130717
11
390.172468
21
19.883981
0
LINE
8
Layer 1
10
390.172468
20
19.883981
11
394.933604
21
21.137931
0
LINE
8
Layer 1
10
394.933604
20
21.137931
11
398.879029
21
21.872238
0
LINE
8
Layer 1
10
398.879029
20
21.872238
11
398.928418
21
22.662461
0
LINE
8
Layer 1
10
398.928418
20
22.662461
11
398.724700
21
23.232252
0
LINE
8
Layer 1
10
398.724700
20
23.232252
11
398.246145
21
23.475349
0
LINE
8
Layer 1
10
398.246145
20
23.475349
11
397.374949
21
23.406899
0
LINE
8
Layer 1
10
397.374949
20
23.406899
11
395.993305
21
23.042050
0
LINE
8
Layer 1
10
176.238717
20
21.989713
11
176.145704
21
21.488702
0
LINE
8
Layer 1
10
176.145704
20
21.488702
11
176.439183
21
21.114030
0
LINE
8
Layer 1
10
176.439183
20
21.114030
11
177.287360
21
20.758011
0
LINE
8
Layer 1
10
177.287360
20
20.758011
11
178.858446
21
20.312959
0
LINE
8
Layer 1
10
178.858446
20
20.312959
11
182.562615
21
19.239103
0
LINE
8
Layer 1
10
182.562615
20
19.239103
11
185.967628
21
18.144080
0
LINE
8
Layer 1
10
185.967628
20
18.144080
11
187.403170
21
17.564069
0
LINE
8
Layer 1
10
187.403170
20
17.564069
11
187.733723
21
17.304441
0
LINE
8
Layer 1
10
187.733723
20
17.304441
11
187.791491
21
17.073752
0
LINE
8
Layer 1
10
187.791491
20
17.073752
11
188.105639
21
16.209446
0
LINE
8
Layer 1
10
188.105639
20
16.209446
11
189.099239
21
14.753531
0
LINE
8
Layer 1
10
189.099239
20
14.753531
11
190.807213
21
12.863038
0
LINE
8
Layer 1
10
190.807213
20
12.863038
11
191.168546
21
12.705010
0
LINE
8
Layer 1
10
191.168546
20
12.705010
11
191.110779
21
13.144510
0
LINE
8
Layer 1
10
191.110779
20
13.144510
11
191.109346
21
13.435519
0
LINE
8
Layer 1
10
191.109346
20
13.435519
11
191.352520
21
13.730563
0
LINE
8
Layer 1
10
191.352520
20
13.730563
11
192.689107
21
14.427211
0
LINE
8
Layer 1
10
192.689107
20
14.427211
11
194.830161
21
15.116098
0
LINE
8
Layer 1
10
194.830161
20
15.116098
11
195.587041
21
15.135534
0
LINE
8
Layer 1
10
195.587041
20
15.135534
11
196.280388
21
14.959906
0
LINE
8
Layer 1
10
196.280388
20
14.959906
11
196.520508
21
14.806343
0
LINE
8
Layer 1
10
196.520508
20
14.806343
11
196.544795
21
14.564045
0
LINE
8
Layer 1
10
196.544795
20
14.564045
11
195.868343
21
13.548794
0
LINE
8
Layer 1
10
195.868343
20
13.548794
11
195.016208
21
12.700230
0
LINE
8
Layer 1
10
195.016208
20
12.700230
11
194.313297
21
12.347232
0
LINE
8
Layer 1
10
194.313297
20
12.347232
11
193.753036
21
12.239789
0
LINE
8
Layer 1
10
193.753036
20
12.239789
11
193.524001
21
11.944889
0
LINE
8
Layer 1
10
193.524001
20
11.944889
11
193.632904
21
11.503674
0
LINE
8
Layer 1
10
193.632904
20
11.503674
11
194.086461
21
10.957287
0
LINE
8
Layer 1
10
194.086461
20
10.957287
11
194.785143
21
10.423148
0
LINE
8
Layer 1
10
194.785143
20
10.423148
11
195.331194
21
10.270604
0
LINE
8
Layer 1
10
195.331194
20
10.270604
11
195.733245
21
10.500384
0
LINE
8
Layer 1
10
195.733245
20
10.500384
11
195.999929
21
11.113215
0
LINE
8
Layer 1
10
195.999929
20
11.113215
11
196.536499
21
12.033034
0
LINE
8
Layer 1
10
196.536499
20
12.033034
11
197.532353
21
13.013409
0
LINE
8
Layer 1
10
197.532353
20
13.013409
11
198.670751
21
13.793164
0
LINE
8
Layer 1
10
198.670751
20
13.793164
11
199.634954
21
14.111122
0
LINE
8
Layer 1
10
199.634954
20
14.111122
11
200.159623
21
14.243811
0
LINE
8
Layer 1
10
200.159623
20
14.243811
11
200.377904
21
14.563031
0
LINE
8
Layer 1
10
200.377904
20
14.563031
11
200.140016
21
14.943827
0
LINE
8
Layer 1
10
200.140016
20
14.943827
11
199.420156
21
15.373141
0
LINE
8
Layer 1
10
199.420156
20
15.373141
11
196.497346
21
16.394654
0
LINE
8
Layer 1
10
196.497346
20
16.394654
11
189.265397
21
18.619625
0
LINE
8
Layer 1
10
189.265397
20
18.619625
11
180.798725
21
21.185026
0
LINE
8
Layer 1
10
180.798725
20
21.185026
11
177.641362
21
22.281460
0
LINE
8
Layer 1
10
177.641362
20
22.281460
11
177.230458
21
22.525197
0
LINE
8
Layer 1
10
177.230458
20
22.525197
11
176.830634
21
22.551777
0
LINE
8
Layer 1
10
176.830634
20
22.551777
11
176.485512
21
22.370261
0
LINE
8
Layer 1
10
176.485512
20
22.370261
11
176.238717
21
21.989713
0
LINE
8
Layer 1
10
197.782516
20
13.934733
11
197.062849
21
13.405566
0
LINE
8
Layer 1
10
197.062849
20
13.405566
11
196.987928
21
13.561009
0
LINE
8
Layer 1
10
196.987928
20
13.561009
11
197.075196
21
13.934733
0
LINE
8
Layer 1
10
197.075196
20
13.934733
11
197.370472
21
14.308457
0
LINE
8
Layer 1
10
197.370472
20
14.308457
11
197.794863
21
14.463900
0
LINE
8
Layer 1
10
197.794863
20
14.463900
11
198.128944
21
14.371428
0
LINE
8
Layer 1
10
198.128944
20
14.371428
11
197.782516
21
13.934733
0
LINE
8
Layer 1
10
568.501747
20
21.679974
11
563.915633
21
20.278740
0
LINE
8
Layer 1
10
563.915633
20
20.278740
11
558.094796
21
18.531430
0
LINE
8
Layer 1
10
558.094796
20
18.531430
11
552.273959
21
16.763307
0
LINE
8
Layer 1
10
552.273959
20
16.763307
11
549.827311
21
15.889520
0
LINE
8
Layer 1
10
549.827311
20
15.889520
11
548.403279
21
15.134531
0
LINE
8
Layer 1
10
548.403279
20
15.134531
11
548.029819
21
14.655811
0
LINE
8
Layer 1
10
548.029819
20
14.655811
11
548.019947
21
14.514909
0
LINE
8
Layer 1
10
548.019947
20
14.514909
11
548.137637
21
14.463900
0
LINE
8
Layer 1
10
548.137637
20
14.463900
11
548.883696
21
14.075381
0
LINE
8
Layer 1
10
548.883696
20
14.075381
11
549.976228
21
13.181905
0
LINE
8
Layer 1
10
549.976228
20
13.181905
11
550.964381
21
12.191591
0
LINE
8
Layer 1
10
550.964381
20
12.191591
11
551.397306
21
11.512559
0
LINE
8
Layer 1
10
551.397306
20
11.512559
11
551.659629
21
10.710083
0
LINE
8
Layer 1
10
551.659629
20
10.710083
11
552.284631
21
10.209794
0
LINE
8
Layer 1
10
552.284631
20
10.209794
11
553.066662
21
10.100626
0
LINE
8
Layer 1
10
553.066662
20
10.100626
11
553.800077
21
10.471511
0
LINE
8
Layer 1
10
553.800077
20
10.471511
11
554.090314
21
10.969325
0
LINE
8
Layer 1
10
554.090314
20
10.969325
11
554.065366
21
11.463964
0
LINE
8
Layer 1
10
554.065366
20
11.463964
11
553.766838
21
11.843112
0
LINE
8
Layer 1
10
553.766838
20
11.843112
11
553.236337
21
11.994454
0
LINE
8
Layer 1
10
553.236337
20
11.994454
11
552.483482
21
12.361564
0
LINE
8
Layer 1
10
552.483482
20
12.361564
11
551.445504
21
13.187990
0
LINE
8
Layer 1
10
551.445504
20
13.187990
11
550.583276
21
14.061380
0
LINE
8
Layer 1
10
550.583276
20
14.061380
11
550.362090
21
14.386826
0
LINE
8
Layer 1
10
550.362090
20
14.386826
11
550.357669
21
14.569381
0
LINE
8
Layer 1
10
550.357669
20
14.569381
11
551.921181
21
15.117598
0
LINE
8
Layer 1
10
551.921181
20
15.117598
11
553.363867
21
15.359295
0
LINE
8
Layer 1
10
553.363867
20
15.359295
11
554.919794
21
14.918631
0
LINE
8
Layer 1
10
554.919794
20
14.918631
11
556.040967
21
14.332667
0
LINE
8
Layer 1
10
556.040967
20
14.332667
11
556.507295
21
13.810202
0
LINE
8
Layer 1
10
556.507295
20
13.810202
11
556.597606
21
13.737288
0
LINE
8
Layer 1
10
556.597606
20
13.737288
11
556.843492
21
13.891518
0
LINE
8
Layer 1
10
556.843492
20
13.891518
11
557.651707
21
14.757059
0
LINE
8
Layer 1
10
557.651707
20
14.757059
11
558.412605
21
15.927091
0
LINE
8
Layer 1
10
558.412605
20
15.927091
11
558.592213
21
16.712154
0
LINE
8
Layer 1
10
558.592213
20
16.712154
11
558.576503
21
16.981252
0
LINE
8
Layer 1
10
558.576503
20
16.981252
11
558.773717
21
17.211820
0
LINE
8
Layer 1
10
558.773717
20
17.211820
11
559.917247
21
17.633963
0
LINE
8
Layer 1
10
559.917247
20
17.633963
11
562.328132
21
18.334580
0
LINE
8
Layer 1
10
562.328132
20
18.334580
11
569.291617
21
20.288618
0
LINE
8
Layer 1
10
569.291617
20
20.288618
11
570.114042
21
20.507053
0
LINE
8
Layer 1
10
570.114042
20
20.507053
11
570.545743
21
20.776951
0
LINE
8
Layer 1
10
570.545743
20
20.776951
11
570.613112
21
21.131382
0
LINE
8
Layer 1
10
570.613112
20
21.131382
11
570.342543
21
21.603421
0
LINE
8
Layer 1
10
570.342543
20
21.603421
11
570.069801
21
21.868986
0
LINE
8
Layer 1
10
570.069801
20
21.868986
11
569.740439
21
21.967400
0
LINE
8
Layer 1
10
569.740439
20
21.967400
11
568.501747
21
21.679974
 0 
ENDSEC
 0 
EOF